<?xml version="1.0" encoding="UTF-8"?>
<svg xmlns="http://www.w3.org/2000/svg" viewBox="0 0 500 500">
  <defs>
    <style>
      .cls-1 {
        fill: #33609d;
      }

      .cls-1, .cls-2, .cls-3 {
        stroke-width: 0px;
      }

      .cls-2, .cls-3 {
        fill: #fff;
      }

      .cls-3 {
        fill-rule: evenodd;
      }
    </style>
  </defs>
  <g id="Livello_2">
    <rect class="cls-1" width="500" height="500"/>
  </g>
  <g id="Livello_1">
    <path id="_Compound_Path_" class="cls-3" d="m324.62,185.41l-13.08,2.71,12.63-13.98.23-.3,12.56,14.51-12.33-2.93Zm10.23,1.73l-10-11.65.15,9.25,9.85,2.41Z"/>
    <path id="_Path_" class="cls-2" d="m330.71,193.91l1.58.38v5.11l-1.58-.38v-5.11Z"/>
    <path id="_Path_-2" class="cls-2" d="m326.95,193.38l1.58.3v5.11l-1.58-.3v-5.11Z"/>
    <path id="_Compound_Path_-2" class="cls-2" d="m312.89,187.37h.75v14.21h-.75v-14.21Zm43.01,60.08v-.38c0-1.88-.9-3.83-1.73-5.56-.9-1.88-2.33-3.61-3.53-4.89-1.13-1.2-2.93-2.48-5.41-3.61-2.48-1.05-4.59-1.5-6.62-1.8-.5-.05-1.03-.08-1.58-.08-1.13,0-2.18.08-2.86.08-.25.05-.45.05-.6,0-.75-.23-1.28-.83-4.06-1.35-1.5-.23-2.63-.23-3.46-.3-.83-.08-1.28.08-1.73-.38-1.95-2.26-3.91-3.83-5.34-4.74-1.43-.98-2.41-1.35-2.41-1.35l.23-.68c.08,0,3.68,1.43,7.52,5.64v-43.01h.68v43.68h.15c.2.05.53.08.98.08.83.08,1.95.08,3.46.38,2.86.45,3.68,1.2,4.14,1.28.1.05.25.05.45,0h.23v-43.01h.68v43.01c.6,0,1.28-.08,1.95-.08.6,0,1.13,0,1.73.08,2.03.3,4.21.75,6.77,1.88,2.56,1.13,4.44,2.48,5.64,3.76,1.2,1.35,2.78,3.08,3.68,5.04.83,1.8,1.8,3.83,1.8,5.94l-.08.45-.68-.08Z"/>
    <path id="_Path_-3" class="cls-2" d="m312.52,232.56s1.13.23,1.8.15c.68-.08.98-.08,1.2,0,.23.08,1.05.23,1.35.3.3.15,1.13.38,1.35.45.3.15.68.53,1.13.6.45.08,1.28.3,1.28.3,0,0,.53.3.75.3s.6.08.6.08l.6.3c.15.15.23.38.53.45.3,0,.53.3.53.3,0,0,.3.15,1.2.6.98.45,1.43.68,2.48.53,1.13-.23,2.41-.68,3.16-.98.75-.23.98-.38,1.28-.38s1.2-.3,1.58-.23c.38.15,1.13.23,1.35.23s.53-.15,1.05,0c.53.23,1.2.45,1.43.68.15.23.08.38-.38.15-.45-.15-1.28-.45-1.95-.38s-1.65.15-1.88.15-.6,0-1.05.23-.53.45-.83.53-.68.23-.98.3c-.23.08-.75.53-1.13.68-.38.08-.9.45-1.58.38-.6,0-1.43-.15-1.73-.23-.3-.08-.83-.08-.98-.23s-.23-.3-.53-.38c-.38-.08-.83-.3-1.28-.83-.53-.6-.68-.45-.9-.53-.15-.15-.68-.6-1.05-.83-.38-.23-.83-.3-1.13-.53-.23-.23-.68-.23-1.13-.45-.45-.3-.68-.15-1.28-.45-.6-.3-1.13-.3-1.35-.38s-.3-.23-.98-.3c-.68-.15-.68-.23-1.13-.23h-1.28l-.15-.38Z"/>
    <path id="_Path_-4" class="cls-2" d="m315.75,244.06s.68-.23,1.2,0,.68,0,1.13.23.83.3,1.05.38c.15.08.6.3.9.38.3.15.98.38,1.2.38.15,0,.6.08.9.15.3.08.68.08.98.45.23.23.23.3.53.38.23.08.68.38,1.2.83.6.45,1.13.9,1.5,1.05.38.15,1.2.53,1.5.6.23.15.68.3.9.3s.45.15.9.15c.38.08.83,0,.83,0,0,0-.08.3-.38.23-.23-.08-.38-.08-.68,0-.38.08-.45.15-.83.15s-.15.08-.75.08c-.53-.08-.83-.08-1.2-.15-.45-.15-.6.08-.98-.23-.38-.23-.98-.6-1.2-.98-.15-.38-.6-.45-.83-.83-.3-.3-.45-.38-.75-.75s-.83-.68-1.05-.68-.75,0-1.05-.23-.68-.3-.9-.45c-.23-.15,0-.3-.6-.3-.6-.08-.75-.3-.9-.38s-.38-.23-.83-.23c-.53,0-.68-.15-1.13-.23-.38,0-.75-.08-.75-.08l.08-.23Z"/>
    <path id="_Path_-5" class="cls-2" d="m301.24,237.97s.53-.08,1.13-.08,1.58.08,2.18,0c.68,0,2.71-.23,3.16-.23.45.08,1.13.15,1.43.08s.83-.08,1.2.08c.38.08,1.05,0,1.5,0s.68.15,1.5.53c.83.23,1.58.83,1.8.9.3.08.98.3,1.28.38.23,0,.9.38.9.38,0,0-.75.23-1.28,0-.45-.23-1.05-.45-1.8-.83-.68-.3-.98-.08-1.28-.38-.23-.3-1.05-.53-1.58-.45-.6,0-2.11-.08-2.11-.08,0,0-.53.15-.75.08-.3,0-.68.08-1.5.23-.83.23-.9.3-1.43.38-.53.08-1.43.15-2.33.23-.83,0-1.05.15-1.65.3-.53.15-.53.3-.83.3s-.38-.15-.6-.08c-.15.08-.68.23-.68.23h-.3l2.03-1.95Z"/>
    <path id="_Path_-6" class="cls-2" d="m313.72,225.64s.45.23.83.38c.3.08.75.3.9.38l.9.45c.15,0,.38-.08.68.23.3.3.45.6.6.6l.75.68.98.75.3.3s-.23.08-.6-.23c-.38-.3-.9-.53-1.28-.9-.45-.38-.98-.68-1.35-.83-.38-.15-.75-.08-1.2-.23-.38-.15-.68-.3-1.2-.3q-.45,0-.83.08h-.83l1.35-1.35Z"/>
    <path id="_Path_-7" class="cls-2" d="m370.56,265.11s.08-.3.08-.98l-.08-.3c0-.75-.68-2.41-.98-2.78-.45-.53-1.35-2.41-1.5-2.63,0-.08-1.2-.83-2.03-1.58-.9-.9-1.65-2.41-2.11-3.23-.38-.68-1.88-1.5-2.11-1.5-.38-.15-1.95-1.05-2.33-1.43-.38-.23-1.73-1.65-1.95-1.8-.23-.15-.9-.53-1.43-.83-.45-.38-.53-.3-2.03-1.2-1.35-.83-2.41-.98-2.41-.98l.08-.75c.08,0,1.2.15,2.78,1.13,1.43.9,1.43.75,2.03,1.13.45.38,1.2.75,1.35.83.23.15.53.45.98.9l1.05,1.05c.23.23,2.03,1.28,2.11,1.28.38.08,1.88.75,2.48,1.8.53.83,1.28,2.41,2.03,3.08.75.68,1.8,1.2,2.18,1.73.15.3,1.13,2.18,1.43,2.56.38.6,1.13,2.18,1.13,3.16l.08.38c0,.68-.15,1.13-.15,1.13l-.68-.15Z"/>
    <path id="_Path_-8" class="cls-2" d="m347.63,238.57s.23.08.38.45c.15.3.15.45.15.75,0,.38-.08.68.08.75l.45.45c0,.15-.08.9.08,1.35.08.45.08,1.13.15,1.28s.3.6.53,1.05c.15.38.23.9.23.9l-.38.45c0,.15-.23.98-.3,1.28-.15.23-.23.38-.15.75.08.3.38,1.65.38,1.65v.3l-1.2.08v-1.05c0-.38.08-1.05,0-1.2-.15-.15-.3-.15-.3-.53s.23-1.28.3-1.5v-.83c-.08-.23-.15-.6-.23-.83,0-.23,0-.38-.23-.45-.15-.08-.68-.08-.9-.08-.3-.08-.53-.15-.53-.15l-.3-.15-.23.08.23-.9c.15-.08.08-.08.23.08.23.23.38.53.68.53.23,0,.6-.23.68-.38s0-.45,0-.68c-.08-.23.08-.53.08-.75.08-.3-.08-.75-.38-.98-.23-.15-.45-.38-.53-.68,0-.3.15-.53.3-.68l.45-.45.3.08Z"/>
    <path id="_Path_-9" class="cls-2" d="m335.68,251.05s.23-.15.83-.15c.53-.08.53-.23,1.13-.23.53,0,.83.15,1.13,0,.3-.08,1.43-.23,1.65-.23s1.05-.08,1.2-.08l1.13-.15c.08,0,.98-.15,1.2-.15.3.08.68.08.75.08.15,0,.98-.15,1.2-.15.3,0,1.35,0,1.8-.08.38-.15,1.5-.38,1.95-.38h1.43l.98-.08c.15,0,.3-.15.53,0,.3.23.3.3.3.3,0,0,.23,0,.3.38s0,.9.3,1.58c.23.68.38,1.13.6,1.5.23.3.08.45.15.53.15,0,.3.45.53.75.15.23.23.6.53.98.38.3.6.6.75.75.23.15.6.68.75.9.15.23.53.6.83.83.23.3.75.83.98,1.13s.6.83.98,1.43.9,1.65.9,2.18c0,.45.08,1.13.08,1.28,0,.23.08.53-.08.75-.08.15-.08.3-.08.6s.08.6.23.6l.08.23-1.13.15-.15-.08s-.08-.08.08-.3.38-.75.38-1.2c.08-.38.23-1.35-.15-2.26-.3-.98-.75-1.8-.98-2.18-.3-.38-1.05-1.28-1.05-1.28l-.38-.23c0-.15-.15-.6-.45-.75s-.23-.08-.45-.3c-.15-.15-.68-.9-.9-1.2-.3-.3-.68-.6-.98-1.13-.38-.53-.6-.9-.83-1.43-.23-.53-.45-.83-.53-1.13s-.23-.53-.3-.83c0-.3,0-.75-.08-.83l-.38-.08c-.08.15-.08.68,0,1.28.08.6.38,2.11.75,2.93.38.75.75,1.58.9,1.88s.6.98.68,1.13l.6.75.45.6.53.75c.08.23.15.45.23.83.15.3.53,1.65.6,1.8l.08.83c-.08.15-.08.68-.23.98-.08.23-.15.53-.38.75-.15.23-.3.3-.3.53.08.3-.08.38-.08.38l-.68.38s-.53.6-1.13.53c-.68,0-1.05-.15-1.35-.3-.23-.23-.45-.38-.45-.38l-.3-.38-.15-.53-.3-.53s.08-.45.15-.68c.15-.3.53-.75.53-.75,0,0,.45-.23.45.15-.08.3-.3.53-.23.83,0,.3-.15.45.15.75.3.3.83.45.98.6s.38.3.75.23,1.05-.45,1.28-.75c.23-.38.45-.9.53-1.43.08-.53,0-1.28-.08-1.58-.15-.3-.53-1.43-.68-1.73-.23-.3-.45-.75-.45-.83l-.45-.45s-.08-.15-.3-.53c-.23-.45-.45-.68-.68-.98s-.45-.68-.6-1.05c-.23-.45-.3-.6-.45-1.13-.23-.53-.38-.98-.45-1.13l-.15-.68-.08-.6c-.08-.23-.08-.45-.08-.68s-.15-.9-.15-1.2c-.08-.3-.23-.68-.08-.9.08-.15.15-.6.15-.6,0,0-.08-.23-.45-.15-.38.15-.53.08-.75.08-.23.08-.3.23-.75.15-.45,0-.83-.08-1.13,0s-.45.08-.83.08c-.3,0-.45.23-.75.23s-.83.08-.98.08c-.08-.08-.23-.08-.53,0-.3.08-.53,0-.83.08-.3,0-.53.23-.75.15-.3-.08-1.43.08-1.8.08-.45,0-1.28.3-1.58.23s-1.05-.08-1.28,0c-.23,0-.6.15-.9.15-.23.08-.75.08-.98.08-.23-.08-.6.08-.75.08l-.53.08c-.08.15-.23.38-.15.6.08.23.23.6.08.83-.08.23-.15.83-.08,1.05v.75c-.08.3,0,.53,0,.53,0,0,.38-.15.75-.08.38,0,.9,0,1.13-.08l1.13-.08c.15.08,1.05,0,1.35,0,.3-.08.98-.3,1.43-.23s1.58-.15,1.73-.15.9-.08,1.65-.08c.75.08,1.58,0,1.73-.08.23-.08,1.43-.08,1.65-.08s.83-.3,1.05-.3l.83.08.9-.15h.75l.15.45s-.23.23-.53.23-.9,0-1.13.08c-.15.08-.68,0-.98.08-.23,0-.75.15-.98.08s-1.2.08-1.43.15h-1.13c-.23,0-.68,0-.9.08-.23.08-.9.08-1.2.08-.3.08-.6,0-.75,0s-.15.15-.68.15c-.45,0-1.13.08-1.28.08-.23,0-.45.08-.6.08-.23.08-.45.08-.75,0-.3,0-.75,0-1.05.08-.3.15-.38.15-.75.15-.45,0-.68,0-.98.08-.38,0-.45.08-.6,0h-.53c-.08.15-.15,0-.23.6-.08.6-.45,1.73-.68,2.26s-.9,2.33-1.2,2.78c-.3.38-.9,1.65-1.13,1.88s-.53.83-.68,1.13c-.08.3-.3.98-.08,1.5s.75,1.13.75,1.13l.75.53.6.15.9.08.6-.3.3-.53c.08-.08.3-.38.3-.6s0-.98-.08-1.05h-.38l-.53-.08-.15-.53c.23-.15.45-.23.68-.15.23.15.6.38.83.6.23.3.38.68.38,1.05-.08.38-.15.9-.45,1.2-.3.38-.23.53-.6.75-.38.15-.98.45-1.28.53-.3.08-1.28.23-1.28.23l-.98.08-.23.08.3-.3.38-.3.3-.3c-.08-.15-.15-.15-.38-.15-.3-.08-.38-.23-.53-.3l-.45-.38-.08-.45-.3-.53-.08-.53c0-.15-.15-.45-.08-.75.15-.23.23-.9.3-.98l.53-.9.38-.68s.53-.83.75-1.13c.15-.3.38-.83.6-1.35.23-.45.6-1.28.68-1.43.08-.15.15-.23.23-.53.08-.23.15-.83.3-1.13.08-.3.15-.75.23-.9.08-.23.08-.3.15-.6,0-.3.08-1.2.08-1.58s.08-.53.08-.68l-.08-.53-.15-.23c-.23.08-.3.08-.3.3s-.15,1.13-.3,1.73c-.23.53-.75,1.73-.83,1.88l-.3.68c0,.15-.23.53-.38.75-.15.3-.45.75-.45.75l-.3.6-.75,1.05c-.08.08-.53.9-.75,1.13-.23.3-.83,1.2-.98,1.35-.08.08-.45.83-.68,1.05-.15.3-.3.75-.45.9l-.45,1.28c0,.08-.15.6-.08.83,0,.23-.08.98,0,1.28.15.23.3.38.3.68,0,.23.23.6.23.6l-.83.3.08-.6-.23-.75c-.08-.15-.15-.83-.23-1.13,0-.3.08-.9.15-1.13.08-.15.23-.38.23-.6,0-.3.23-.98.38-1.2.15-.23.75-1.58.98-1.88s.9-1.13,1.13-1.5.98-1.28,1.28-1.73c.3-.38.53-.9.9-1.58.3-.68.75-1.5.9-1.88s.38-.98.53-1.35.3-.9.38-1.2c0-.23.15-.6.15-.98.08-.38,0-.68.08-.98.08-.23.15-.23.15-.23h.53Z"/>
    <path id="_Path_-10" class="cls-2" d="m343.12,240c.23.08.3,0,.53.45.23.45.45.6.6.83.15.23.15.68.15.98,0,.38,0,.9.08,1.13s.15.68.23.83l.3.83.6,1.13-.15.38c-.15.23-.6.68-.98.83-.38.08-.9.08-.98.23-.08.15-.23.3-.15.53.15.23.3.68.15.9-.15.23-.15.6-.15.83v.68l-.6.15-.08-.3.15-.75c0-.15-.08-1.05-.08-1.35s.23-.75-.08-.83c-.23-.08-.83-.08-1.05-.08l-.68-.23-.53-.15s-.3-.23-.15-.6c.23-.38.45-.38.53-.68.15-.38.15-.75.23-1.05.15-.23.3-.68.38-.83.15-.15.15-.38.23-.75.08-.3-.08-.9,0-1.13.08-.3.38-.68.45-.83l.23-.53.38-.45s.23-.23.45-.15h0Z"/>
    <path id="_Compound_Path_-3" class="cls-3" d="m244.55,127.59l-12.71,12.26-.53-.53,13.23-12.78,12.71,12.86-.53.53m-94.14,76.69l.08-30.83c0-7.52,5.94-13.61,13.38-13.61s13.46,6.09,13.46,13.61v3.23l2.41-1.05v-4.29l4.44-1.88v4.14l3.23-1.5v-4.14l4.59-1.95v4.06l3.01-1.35v-4.14l4.29-1.88v4.14l2.33-1.05v-4.21l4.36-1.88v4.06l2.63-1.13v-4.06l4.36-1.95v4.06l3.16-1.43v-4.06l3.76-1.65v-2.63l-4.44-8.35.68-.3,4.29,8.12c3.23-1.43,7.44-2.18,11.88-2.18,4.06,0,7.74.6,10.68,1.73l5.19-7.82.6.38-5.26,8.05v3.83l4.21,2.56v3.38l2.48,1.5v-3.31l4.21,2.33v3.61l2.33,1.43v-3.53l4.21,2.41v3.68l2.48,1.5v-3.61l4.59,2.63v3.76l2.11,1.35v-3.83l4.36,2.56v3.91l2.56,1.58v-3.76l4.36,2.41v4.14l2.71,1.58v-4.14l4.29,2.56v4.21l2.86,1.73v-4.14l4.81,2.78v4.44l3.23,1.95v-4.29l5.49,3.08v19.85l-28.2,28.2-.53-.53,27.97-27.97v-18.35l-2.48,2.11v4.74l-3.76,3.38v-4.66l-2.48,2.11v4.74l-3.76,3.53v-4.89l-2.93,2.48v4.96l-3.83,3.53v-5.04l-3.01,2.56v5.11l-3.83,3.53v-5.19l-2.93,2.56v5.11l-3.76,3.46v-5.26l-2.86,2.48-.45-.6,4.06-3.46v5.11l2.26-2.11v-5.04l4.36-3.91v5.11l2.41-2.18v-5.04l4.51-3.91v4.96l2.33-2.18v-4.96l4.44-3.68v4.74l2.26-2.18v-1.73l-38.42-23.68c-5.19,3.01-12.93,4.81-21.73,4.81-1.5,0-3.06-.08-4.66-.23-9.55-.68-17.89-3.23-23.53-6.84l-29.02,12.78c-1.65,5.19-6.54,9.17-12.26,9.4l.15.15v5.56l1.88,2.33v-5.49l4.06,4.36v5.86l2.11,2.56v-5.94l4.44,4.81v6.47l2.41,2.78v-6.24l4.36,4.66-.53.45-3.08-3.23v6.39l-3.91-4.51v-6.47l-2.93-3.16v6.02l-3.61-4.29v-5.86l-2.56-2.71v5.71l-3.38-4.21v-5.56l-1.95-2.11v5.41l-3.31-4.21v-4.96l-2.48-2.78v5.11l-3.16-4.06v-4.74l-2.26-2.41v19.77l33.68,43.68-.6.45-33.83-43.91Zm79.4-21.8c1.55.1,3.08.15,4.59.15,8.5,0,16.02-1.73,20.98-4.51l-12.18-7.44c-3.01,1.13-6.84,1.8-10.9,1.8-4.66,0-8.87-.9-12.11-2.33l-13.16,5.79c5.41,3.38,13.53,5.86,22.78,6.54h0Zm-52.48,5.71l42.56-18.72v-15.19l-3.01,1.35v4.06l-4.66,2.03v-4.06l-2.86,1.35v4.06l-4.14,1.8v-4.06l-2.86,1.28v4.14l-3.91,1.65v-4.06l-2.71,1.2v4.14l-4.59,2.03v-4.14l-3.08,1.35v4.14l-4.66,2.18v-4.14l-3.01,1.2v4.29l-3.08,1.35v10.75Zm-13.01,9.62c5.79,0,10.68-3.98,12.26-9.25v-15.19c0-7.07-5.71-12.78-12.71-12.86-6.99.08-12.71,5.79-12.71,12.86v9.7l2.93,3.31v4.74l1.73,2.11v-4.89l3.98,4.44v4.21c.55.2,1.13.38,1.73.53v-2.48l2.71,2.78h.08Zm-4.51,0l1.73,2.26v-1.8c-.6-.1-1.18-.25-1.73-.45Zm134.66,3.53v-2.11l4.06-3.38v4.59l2.26-2.03v-4.74l3.08-2.63-3.83-2.11v4.36l-4.81-2.93v-4.36l-3.31-1.95v4.21l-4.36-2.71v-4.14l-2.78-1.65v4.14l-4.14-2.56v-4.14l-2.93-1.58v3.91l-3.98-2.56v-3.91l-2.86-1.65v3.83l-3.68-2.18v-3.76l-3.08-1.8v3.61l-3.98-2.33v-3.76l-2.63-1.5v3.61l-3.83-2.41v-3.53l-2.71-1.5v3.38l-3.98-2.48v-3.38l-3.46-2.11v14.81l50.98,31.43Zm-62.26-29.7c3.91,0,7.52-.68,10.45-1.73v-19.47c-2.93-1.05-6.54-1.65-10.45-1.65-4.44,0-8.57.75-11.65,2.11v18.5c3.08,1.35,7.14,2.26,11.65,2.26h0Z"/>
    <path id="_Path_-11" class="cls-2" d="m274.32,260.98s.83-.38,1.43-.68c.6-.38.45-.23,1.05-.53.6-.23.98-.38,1.2-.38.23.08.9,0,1.2,0,.38,0,.68.08.98.08.23-.08.53-.3.83-.15.38.15.68.3.98.3.23.08.45.15,1.05.45.6.23.45.45.98.98.45.53.75.75.83,1.13s.53,1.2.9,1.5c.38.3.53.83,1.13,1.13.53.23.9.3,1.13.3.15.08.68.15.68.15v.53s-.98-.08-1.5-.3-1.43-.98-1.95-1.58c-.45-.53-.9-.75-1.35-1.2-.53-.45-1.35-1.13-1.5-1.43-.15-.23.23-.08-.75-.45-.9-.45-1.2-.45-1.65-.45-.53,0-.68-.38-1.13-.3s-.45,0-1.05.15c-.53.23-.6.15-.9.3-.3.15-.6.3-.83.3-.15,0-.08,0-.6.23-.53.15-.45.15-.75.23-.23.08-.53.15-.53.15l.15-.45Z"/>
    <path id="_Compound_Path_-4" class="cls-3" d="m280.11,260v-26.39l-9.4-.83v27.07h-.75v-27.07l-9.32.6v26.54h-.75v-26.47l-3.08.15,13.08-11.8.23-.23,12.56,12.26-1.8-.15v26.32h-.75Zm.53-27.07l-10.15-10,.23,9.1,9.92.9Z"/>
    <path id="_Path_-12" class="cls-2" d="m272.67,236.17l1.73.15v5.04l-1.73-.15v-5.04Z"/>
    <path id="_Path_-13" class="cls-2" d="m276.88,236.54l1.58.08v5.11l-1.58-.15v-5.04Z"/>
    <path id="_Path_-14" class="cls-2" d="m272.67,246.54l1.73.08v5.11l-1.73-.08v-5.11Z"/>
    <path id="_Path_-15" class="cls-2" d="m276.88,246.77l1.58.08v5.11l-1.58-.08v-5.11Z"/>
    <path id="_Compound_Path_-5" class="cls-3" d="m196.13,260.23v-25.49l-2.03.23,12.93-12.41.3-.3,13.31,12.11-13.53-.9-10.23,1.13v25.64h-.75Zm22.41-26.77l-10.83-9.77-.23,9.02,11.05.75Z"/>
    <path id="_Path_-16" class="cls-2" d="m206.73,233.08h.75v27.14h-.75v-27.14Z"/>
    <path id="_Path_-17" class="cls-2" d="m217.56,233.68h.75v26.62h-.75v-26.62Z"/>
    <path id="_Path_-18" class="cls-2" d="m204.77,237.74v4.96l-1.73.15v-4.96l1.73-.15Z"/>
    <path id="_Path_-19" class="cls-2" d="m200.56,238.05v5.04l-1.58.15v-5.04l1.58-.15Z"/>
    <path id="_Path_-20" class="cls-2" d="m204.77,248.05v5.11l-1.73.08v-5.11l1.73-.08Z"/>
    <path id="_Path_-21" class="cls-2" d="m200.56,248.27v5.11l-1.58.08v-5.11l1.58-.08Z"/>
    <path id="_Path_-22" class="cls-2" d="m168.98,305.11v-44.89l74.74-.6v.75l-73.98.6v4.06h72.78v.75h-72.78v38.57h54.51v.75h-55.26Z"/>
    <path id="_Path_-23" class="cls-2" d="m173.65,278.05h5.64v8.65h-5.64v-8.65Z"/>
    <path id="_Path_-24" class="cls-2" d="m173.65,298.12h5.64v6.62h-5.64v-6.62Z"/>
    <path id="_Path_-25" class="cls-2" d="m176.5,288.95c1.88,0,3.46,1.58,3.46,3.46s-1.58,3.53-3.46,3.53-3.53-1.58-3.53-3.53,1.58-3.46,3.53-3.46Z"/>
    <path id="_Path_-26" class="cls-2" d="m182.67,281.35h10.75v23.38h-10.75v-23.38Z"/>
    <path id="_Path_-27" class="cls-2" d="m198.68,278.05h5.56v8.65h-5.56v-8.65Z"/>
    <path id="_Path_-28" class="cls-2" d="m198.68,298.12h5.56v6.62h-5.56v-6.62Z"/>
    <path id="_Path_-29" class="cls-2" d="m201.47,288.95c1.95,0,3.46,1.58,3.46,3.46s-1.5,3.53-3.46,3.53-3.46-1.58-3.46-3.53,1.58-3.46,3.46-3.46Z"/>
    <path id="_Path_-30" class="cls-2" d="m196.65,270.45l-3.23,4.44h-10.75l-3.23-4.44h17.22Z"/>
    <path id="_Path_-31" class="cls-2" d="m208.61,281.35h10.75v23.38h-10.75v-23.38Z"/>
    <path id="_Path_-32" class="cls-2" d="m222.59,270.45l-3.23,4.44h-10.75l-3.23-4.44h17.22Z"/>
    <path id="_Compound_Path_-6" class="cls-3" d="m249.59,243.08v-4.21h-3.76v4.21h-5.34v-4.21h-3.98v4.21h-4.89v-4.21h-4.06v4.21h-5.19v-4.21h-4.44v-.75h5.19v4.21h3.68v-4.21h5.56v4.21h3.38v-4.21h5.49v4.21h3.83v-4.21h5.26v4.21h4.29v-4.21h5.64v.75h-4.89v4.21h-5.79Zm34.06,31.2l.15-.23,4.51-.45v-18.27l-1.28-2.33-6.32,6.54-.53-.53,6.47-6.69-.45-.75-.23-.45,17.82-3.53,17.89,3.76-1.58,3.76v15.04l67.89-7.37,4.21,4.14-111.8,13.01,3.23-5.64Zm21.58-2.48l14.14-1.58v-14.81l-14.14-2.56v18.95Zm-16.24,1.8l15.49-1.73v-18.95l-15.49,2.71v17.97Zm-7.22,5.49l108.8-12.63-2.86-2.78-103.53,11.2-2.41,4.21Zm37.74-24.36l1.13-2.71-16.39-3.46.9,3.61,14.36,2.56Zm-45.11,77.44c-2.01-.8-4.14-1.45-6.39-1.95v.15h-.75v-.38c-5.04-1.13-10.53-1.65-16.39-1.88-.9,0-1.8,0-2.71,0-7.97,0-15.34,1.2-21.58,3.31l-.53.15v-21.73h.08l-2.48-5.19.23-.15-.08-.15h.15c2.41-13.01,9.25-23.38,18.2-27.37v-12.71c.08-4.36,3.61-7.97,8.05-7.97,2.71,0,5.11,1.35,6.54,3.46l17.82-.23v37.59c.8,2.31,1.43,4.71,1.88,7.22l-.3.08v.08l.3.08-1.58,5.64.08,22.18-.53-.23Zm-31.5-67.89v12.41c2.33-.98,4.74-1.43,7.29-1.43s4.96.45,7.29,1.43v-12.41c-.08-3.98-3.31-7.22-7.29-7.22s-7.29,3.23-7.29,7.22Zm30.9,30.83v-34.89l-16.62.23c.68,1.2.98,2.48,1.05,3.83v12.71c6.62,2.93,12.18,9.55,15.56,18.12Zm1.8,9.02c-.45-2.41-1.05-4.69-1.8-6.84v-.08c-4.36-12.63-13.38-21.28-23.61-21.2-12.03-.08-22.26,11.73-25.41,27.97,7.14-2.86,15.86-4.51,25.26-4.51s18.35,1.73,25.56,4.66h0Zm-32.93,1.73c2.21-.2,4.46-.3,6.77-.3l.6-5.34c-3.38,0-6.69.23-9.85.6l2.48,5.04Zm24.81,1.73l2.03-4.74c-5.64-1.58-12.03-2.56-18.72-2.63l-.6,5.34c6.17,0,11.95.75,17.29,2.03h0Zm-40.75,1.73c4.51-1.58,9.7-2.78,15.19-3.38l-2.48-4.96c-5.41.75-10.45,2.11-14.81,3.91l2.11,4.44Zm47.52.3l1.35-4.74c-1.7-.7-3.51-1.33-5.41-1.88l-1.95,4.74c2.11.55,4.11,1.18,6.02,1.88h0Zm-31.35,17.89c1.7-.1,3.46-.15,5.26-.15h1.2v-21.05c-2.21,0-4.36.1-6.47.3v20.9Zm8.05-.15c5.79.23,11.28.75,16.32,1.88v-20.98c-5.26-1.28-11.05-1.95-17.14-1.95v21.05h.83,0Zm-24.14,3.16c4.66-1.5,9.77-2.56,15.34-2.93v-20.9c-5.56.6-10.75,1.73-15.34,3.38v20.45Zm47.37.75l-.08-20.9c-1.9-.75-3.93-1.4-6.09-1.95v20.98c2.16.5,4.21,1.13,6.17,1.88Z"/>
    <path id="_Path_-33" class="cls-2" d="m250.86,244.74v.9l-.08.6c.08.15.23.53.15.75-.08.3.08.75.08.75l.08.23c.15,0,.6-.08.9,0,.3,0,.9-.08,1.2-.08.3.08.9-.08.9.08v.9c0,.23.08.53-.15.6-.15.08-.75.08-.98,0-.3-.08-.6,0-.83,0h-1.13s-.23.45-.15.68c.08.15.15.68.08,1.05,0,.38,0,.9.08,1.13,0,.3-.08.9-.08,1.13,0,.3,0,.68.08.98s.15.53,0,.98c-.08.45,0,.68,0,.68v.53l-1.13.08-.08-.08.08-.6c0-.15,0-.68-.08-1.13-.08-.38-.08-1.5-.08-1.5,0,0,.15-.6.08-1.13s-.23-.98-.08-1.35c.15-.45,0-.6,0-.83,0-.3-.08-.68-.38-.68-.3-.08-.6,0-1.05,0-.38,0-.68-.08-.83-.08l-.75.08-.3-.3.08-.38v-.68c.08-.15.08-.23.3-.15h1.5l.75.08.45-.08.15-.38-.08-.98c.08-.23.08-.6.08-.83s-.15-.38-.15-.6c0-.15-.08-.45.23-.53.23-.15.53-.23.53-.23l.3.15.3.23Z"/>
    <path id="_Compound_Path_-7" class="cls-2" d="m242.37,264.06c2.18-.9,4.89-1.35,7.82-1.35s5.49.45,7.67,1.35l-.3.68c-2.03-.83-4.59-1.28-7.37-1.28s-5.49.45-7.52,1.28l-.3-.68Zm15.34,1.65v-.75l2.63.08v-5.11h.75v5.11h.45v-5.11h.75v5.11h4.29v-5.11h.75v5.11h.45v-5.11h.75v5.11l5.64.08v.75l-16.47-.15Z"/>
    <path id="_Path_-34" class="cls-2" d="m242.52,270.45v4.44h-8.12l-3.16-4.44h11.28Z"/>
    <path id="_Path_-35" class="cls-2" d="m266.2,270.45l-3.23,4.44h-5.26v-4.44h8.5Z"/>
    <path id="_Path_-36" class="cls-2" d="m274.32,272.33s.83.38,1.13.6c.3.15.3.08.83.38.53.3.68.38.9.6.23.3.68.6,1.13,1.2.45.53.53.9.68,1.2.15.3.23.68.45.98.15.23.68,1.2.9,1.35.23.08.83.23.83.23l-.68.9-.3-.23c-.23-.23-.75-.23-1.05-.53q-.3-.3-.53-.83c-.23-.53-.15-.68-.45-.9-.3-.25-.53-.58-.68-.98-.15-.45-.38-.98-.6-1.2-.3-.3-.75-.6-.98-.98-.15-.38-.23-.3-.53-.53-.23-.3-.45-.45-.68-.38s-.53.15-.53.15v-1.05h.15Z"/>
    <path id="_Path_-37" class="cls-2" d="m279.74,328.12v-48.65h.75v47.89h17.82v.75h-18.57Z"/>
    <path id="_Path_-38" class="cls-2" d="m274.4,283.31s.08,1.35,1.28,2.71c1.2,1.35,1.05.98,1.5,1.2.45.15,1.28.53,1.65,1.05.38.6.68,1.2,1.13,1.58.38.3.23,1.05.23,1.05v36.84h7.97l26.47,21.58v26.69h-4.66v-5.34h-.53v-15.94h2.48l-31.8-26.62-5.56,4.29-.23-22.18,1.73-5.56s-.45-2.71-.9-4.21c-.45-1.43-.9-3.31-.9-3.31l.15-13.83Z"/>
    <path id="_Path_-39" class="cls-2" d="m254.4,267.52v4.81c-.85-.2-1.75-.33-2.71-.38v-4.44c0-.75.6-1.35,1.35-1.35s1.35.6,1.35,1.35h0Z"/>
    <path id="_Path_-40" class="cls-2" d="m247.18,266.17c.75,0,1.35.6,1.35,1.35v4.44c-.95.05-1.85.18-2.71.38v-4.81c0-.75.6-1.35,1.35-1.35h0Z"/>
    <path id="_Path_-41" class="cls-2" d="m251.92,276.24c5.11,4.66,9.47,19.47,9.55,24.06l-.08.23h-.68v-.23c0-4.59-5.34-21.73-10.45-24.29h-.3c-5.04,2.78-10.38,19.7-10.3,24.29v.15l-.75.08v-.23c.08-4.51,4.21-18.8,9.25-23.76-10.15,3.46-15.56,17.89-17.44,26.24l-.75-.15c2.11-8.87,7.82-24.74,19.77-27.29l.3-.15v.08h.23v-.15l.23.08.23-.08.08.15c12.18,2.18,18.12,18.35,20.23,27.37l-.68.15c-2.03-8.65-7.67-23.68-18.42-26.54h0Z"/>
    <path id="_Path_-42" class="cls-2" d="m254.7,314.29l4.44-3.91,3.98,5.04v8.87c-2.63-.53-5.49-.9-8.35-1.13l-.08-8.87Z"/>
    <path id="_Path_-43" class="cls-2" d="m238.76,324.29c-2.93.23-5.71.68-8.42,1.2v-8.95l3.98-5.04,4.51,3.91-.08,8.87Z"/>
    <path id="_Compound_Path_-8" class="cls-3" d="m209.14,355.11l15.79-14.59.23-.3,12.33,14.89h-28.35Zm26.77-.75l-10.45-12.71-1.95,12.71h12.41Zm-2.11,43.91v-27.97h5.94v5.26h6.09v-5.26h6.24v5.26h5.04v-5.26h4.36v-15.19h-16.62l24.21-18.87c-5.41-1.58-11.8-2.63-18.2-2.86h-2.78c-7.82,0-15.19,1.2-21.5,3.31l-.23-.75c6.39-2.11,13.76-3.31,21.73-3.31h2.78c6.69.23,13.31,1.35,18.87,3.01l10.15-7.82.23-.23,32.78,27.52h-13.46v20.45h4.44v-5.26h6.39v5.26h5.79v-5.26h6.17v27.97h-88.42Zm76.99-43.91l-30.75-25.79-33.01,25.79h5.86l27.22-21.58,24.89,21.58h5.79Zm-23.46,15.94v5.26h4.89v-5.26h6.47v-15.26l-18.57-15.41-17.89,15.19v15.49h1.73v5.26h5.26v-5.26h6.54v5.26h4.81v-5.26h6.77Zm-52.86,27.22h86.92v-26.47h-4.66v5.26h-7.22v-5.26h-4.96v5.26h-5.94v-5.26h-5.71v5.26h-6.32v-5.26h-5.34v5.26h-6.24v-5.26h-5.11v5.26h-6.77v-5.26h-5.34v5.26h-6.54v-5.26h-4.74v5.26h-7.59v-5.26h-4.44v26.47Zm64.51-43.16h4.89l-23.83-20.6-25.94,20.6h7.44l18.5-15.71,18.95,15.71Zm22.78,43.53v-.38.38Z"/>
    <path id="_Compound_Path_-9" class="cls-2" d="m236.05,354.36h12.26v.75h-12.26v-.75Zm-2.26.38h.75v16.32h-.75v-16.32Z"/>
    <path id="_Path_-44" class="cls-2" d="m234.17,354.74h14.81v15.94h-2.78v5.26h-6.92v-5.26h-5.11v-15.94Z"/>
    <path id="_Compound_Path_-10" class="cls-2" d="m297.86,284.29h.75v29.62h-.75v-29.62Zm-71.73,46.62h.75v11.5h-.75v-11.5Zm95.34,43.61v-24.81h-8.5v-.75h10.23l-25.34-20.98v-10.08h.75v9.77l26.62,22.03h-3.01v24.81h-.75Z"/>
    <path id="_Path_-45" class="cls-2" d="m249.06,172.33v-7.67c.6.08,1.13.15,1.73.23v7.59c-.6-.08-1.13-.08-1.73-.15h0Z"/>
    <path id="_Path_-46" class="cls-2" d="m244.85,181.35h-1.8v-4.21c.6-.05,1.2-.08,1.8-.08v4.29Z"/>
    <path id="_Path_-47" class="cls-2" d="m237.41,180.98v-4.29c.6.1,1.2.18,1.8.23v4.29c-.6-.05-1.2-.13-1.8-.23Z"/>
    <path id="_Path_-48" class="cls-2" d="m243.05,164.36h1.8v7.67h-1.8v-7.67Z"/>
    <path id="_Path_-49" class="cls-2" d="m239.14,172.26c-.6.05-1.18.13-1.73.23v-7.37c.55-.15,1.15-.28,1.8-.38l-.08,7.52Z"/>
    <path id="_Path_-50" class="cls-2" d="m307.86,256.84l1.73.38v4.66l-1.73-.3v-4.74Z"/>
    <path id="_Path_-51" class="cls-2" d="m311.69,257.52l1.73.3v4.74l-1.73-.3v-4.74Z"/>
    <path id="_Path_-52" class="cls-2" d="m315.53,258.2l1.65.23v4.74l-1.65-.3v-4.66Z"/>
    <path id="_Path_-53" class="cls-2" d="m294.4,258.12v4.59l-1.95.38v-4.59l1.95-.38Z"/>
    <path id="_Path_-54" class="cls-2" d="m300.56,257.07v4.66l-1.73.3v-4.66l1.73-.3Z"/>
    <path id="_Path_-55" class="cls-2" d="m316.05,342.93v-61.73l-3.08.53v4.06l-4.36.83v-3.98l-2.93.68v3.98l-4.44.9v-3.98l-2.93.6-.23-.68,3.91-.9v4.06l2.93-.6v-3.98l4.44-.98v3.98l2.86-.53v-4.06l4.66-.9.15.75-.23.08v61.88h-.75Z"/>
    <path id="_Path_-56" class="cls-2" d="m290.49,278.35l9.62-1.13v6.84l-1.95.53v16.02l-7.67.68v-22.93Z"/>
    <path id="_Path_-57" class="cls-2" d="m330.49,313.91v-28.12l-2.33-.83v3.16l-3.31-1.05v-3.31l-2.11-.75v3.23l-3.23-.98v-3.23l-3.16-1.05.23-.68,3.68,1.2v3.23l1.73.45v-3.23l3.61,1.28v3.31l1.8.6v-3.23l3.83,1.35v28.65h-.75Z"/>
    <path id="_Path_-58" class="cls-2" d="m320.49,293.53c0-1.95,1.5-3.46,3.38-3.46s3.46,1.5,3.46,3.38v11.88l-6.84-.98v-10.83Z"/>
    <path id="_Path_-59" class="cls-2" d="m303.42,293.98c.08-2.18,1.8-3.98,3.98-3.98s3.98,1.8,4.06,3.98v10.98l-8.05.9v-11.88Z"/>
    <path id="_Compound_Path_-11" class="cls-3" d="m397.11,286.84h-.08c-1.8,0-3.31-1.43-3.31-3.31,0-.68.23-1.35.6-1.88v-4.74h.75v3.98c.53-.38,1.2-.68,1.95-.68h.08l33.76.83-.08.75-33.68-.83h-.08c-1.43,0-2.56,1.13-2.56,2.56s1.13,2.56,2.56,2.56h.08l32.93.38v.75l-32.93-.38Zm-66.62,75.56v-44.29l-14.06-1.88-18.35,2.03-2.48-4.36,20.83-2.26.08-.08,17.52,2.33-2.78,3.98v44.51h-.75Zm-33.68-47.82l1.65,2.86,18.05-1.95,14.21,1.88,1.95-2.86-16.24-2.11-19.62,2.18Z"/>
    <path id="_Path_-60" class="cls-2" d="m385.08,280.68c0-6.39-6.17-11.65-13.76-11.65l20.83-2.11.6,10.68-7.67,3.08Z"/>
    <path id="_Compound_Path_-12" class="cls-3" d="m331.02,296.84l-.3-.53,22.93-11.28,25.34,11.28.23.08-.15.75-.23-.08h-.08c-6.84-1.28-14.74-1.95-23.23-1.95-9.02,0-17.37.83-24.44,2.18l-.08-.45Zm1.43-.6c6.84-1.2,14.66-1.88,23.08-1.88,7.37,0,14.36.53,20.53,1.43l-22.41-9.92-21.2,10.38Z"/>
    <path id="_Path_-61" class="cls-2" d="m360.86,270.15v18.5l-3.61-1.58c.05-.45.08-.9.08-1.35,0-7.37-5.94-13.38-13.23-13.38-.65,0-1.25.05-1.8.15l18.57-2.33Z"/>
    <path id="_Path_-62" class="cls-2" d="m367.33,311.28v-3.38c.08-1.73,1.5-3.23,3.31-3.23s3.23,1.43,3.23,3.23v4.06c-2.11-.23-4.29-.45-6.54-.68h0Z"/>
    <path id="_Path_-63" class="cls-2" d="m357.41,310.83v-3.83c0-1.8,1.35-3.23,3.08-3.23s3.23,1.43,3.23,3.23v4.06c-2.11-.08-4.21-.23-6.32-.23Z"/>
    <path id="_Path_-64" class="cls-2" d="m350.11,304.06c1.8,0,3.23,1.43,3.23,3.23v3.53c-2.16.05-4.29.13-6.39.23v-3.76c0-1.8,1.35-3.23,3.16-3.23Z"/>
    <path id="_Path_-65" class="cls-2" d="m336.65,307.97c0-1.88,1.5-3.31,3.38-3.31s3.31,1.5,3.38,3.31v3.31c-2.36.2-4.61.45-6.77.75v-4.06Z"/>
    <path id="_Path_-66" class="cls-2" d="m357.41,325.11v-3.83c0-1.73,1.35-3.23,3.08-3.23s3.23,1.5,3.23,3.23v4.06c-2.11-.08-4.21-.23-6.32-.23Z"/>
    <path id="_Path_-67" class="cls-2" d="m350.11,318.35c1.8,0,3.23,1.43,3.23,3.23v3.53c-2.16.05-4.29.13-6.39.23v-3.76c0-1.8,1.35-3.23,3.16-3.23Z"/>
    <path id="_Compound_Path_-13" class="cls-2" d="m367.18,330.15l.08-.75c.85.1,1.7.2,2.56.3l-.15.75c-.8-.1-1.63-.2-2.48-.3Zm-36.32.08c6.17-1.05,13.31-1.58,20.98-1.58h3.98c3.66.1,7.19.33,10.6.68l-.08.75c-3.41-.35-6.92-.58-10.53-.68h-3.98c-7.67,0-14.74.53-20.9,1.58l-.08-.75Z"/>
    <path id="_Path_-68" class="cls-2" d="m330.86,335.11c5.49-.83,11.8-1.28,18.57-1.28,2.16,0,4.36.05,6.62.15,2.66.1,5.26.28,7.82.53l-.08.75c-2.51-.25-5.11-.43-7.82-.53-2.21-.1-4.39-.15-6.54-.15-6.69,0-13.01.45-18.5,1.28l-.08-.75Z"/>
    <path id="_Compound_Path_-14" class="cls-2" d="m330.79,340.08c4.29-.53,9.02-.75,14.14-.75,3.68,0,7.59.08,11.58.45.55.05,1.1.1,1.65.15l-.08.75c-.55-.05-1.1-.1-1.65-.15-3.98-.38-7.82-.53-11.5-.53-5.04,0-9.77.3-13.98.83l-.15-.75Zm0,6.02c3.98-.45,8.35-.68,12.93-.68,2.46,0,5.01.08,7.67.23l-.08.75c-2.61-.15-5.14-.23-7.59-.23-4.59,0-8.87.23-12.78.68l-.15-.75Zm0,5.79c3.31-.3,6.92-.53,10.83-.53,1.15,0,2.33.03,3.53.08l-.08.75c-1.15-.05-2.31-.08-3.46-.08-3.83,0-7.44.23-10.75.53l-.08-.75Zm0,5.26c2.31-.2,4.76-.3,7.37-.3v.75c-2.56,0-5.01.1-7.37.3v-.75Zm-108.35,41.95v-44.36h.75v44.51l-3.08,5.34,29.17-.08,1.5-6.77.75.23-1.5,6.54h18.72l1.28-6.69.75.08-1.28,6.62,18.12-.08-.15-6.54.68-.08.23,6.62h17.97l-1.28-6.54.75-.08,1.28,6.62h15.86l-1.73-6.54.75-.23,1.95,7.44-105.11.23,3.61-6.24Z"/>
    <path id="_Path_-69" class="cls-2" d="m338.01,239.32s.3.3.23.53c0,.23,0,.68.08.75l.15.68-.38.3-.23.38.08.53.38.68.23.38.38.3.38.15.53-.3s.3-.08.3.15-.23.6-.38.68c-.08.08-.3.3-.53.3s-.45-.38-.68-.23c-.23.08-.3-.15-.38.23s-.15,1.05-.08,1.35c.15.3.38,1.05.3,1.28-.08.3,0,.98-.15,1.13-.15.23-.45.75-.38.9l.15.83.3.6-1.8.15s.38-.08.45-.45,0-.6,0-.83,0-.9.08-1.13v-.83c0-.15-.23-.68-.38-.9-.15-.3-.3-.75-.15-1.2.15-.38.38-.83.38-1.28.08-.45,0-.83-.08-1.05,0-.23-.08-.38.08-.53l.23-.45-.08-.83-.23-.45c-.08-.15-.23-.45-.15-.75.08-.3.23-.38.3-.6.08-.15.15-.38.3-.45l.38-.08.38.08Z"/>
    <path id="_Compound_Path_-15" class="cls-2" d="m175,260.6h.75v4.74h-.75v-4.74Zm1.13-.15h.75v4.96h-.75v-4.96Zm6.69,0h.75v4.96h-.75v-4.96Zm5.49.08h.75v4.89h-.75v-4.89Zm1.28,0h.75v4.96h-.75v-4.96Zm5.41-.23h.75v5.11h-.75v-5.11Zm1.2.08h.75v5.04h-.75v-5.04Zm5.94.15h.75v4.96h-.75v-4.96Zm1.28-.15h.75v5.11h-.75v-5.11Zm5.11,5.04v-5.04h.75v5.11l-.75-.08Zm1.2-5.19h.75v5.19h-.75v-5.19Zm5.41-.08h.75v5.19h-.75v-5.19Zm1.2,0h.75v5.19h-.75v-5.19Zm5.11-.23h.75v5.41h-.75v-5.41Zm1.28,0h.75v5.49h-.75v-5.49Zm4.89,0h.75v5.49h-.75v-5.49Zm1.2,0h.75v5.41h-.75v-5.41Zm5.94,0h.75v5.49h-.75v-5.49Zm1.35,0h.75v5.49h-.75v-5.49Zm-54.44.75h.75v4.89h-.75v-4.89Zm154.59,24.06c0-5.04,3.98-9.17,8.87-9.17s8.87,4.14,8.87,9.17v.75l-.75-.08v-.68c0-4.66-3.61-8.42-8.12-8.42s-8.12,3.76-8.12,8.42c0,2.93,1.35,5.41,3.46,6.92v.08l-.38.6c-2.33-1.65-3.83-4.44-3.83-7.59Z"/>
    <path id="_Path_-70" class="cls-2" d="m223.8,278.05h5.64v8.65h-5.64v-8.65Z"/>
    <path id="_Path_-71" class="cls-2" d="m226.65,295.94c-1.95,0-3.53-1.58-3.53-3.53s1.58-3.46,3.46-3.46c1.13,0,2.03.45,2.71,1.2,0,0-1.88,3.53-2.11,4.21-.15.6-.53,1.58-.53,1.58Z"/>
    <path id="_Path_-72" class="cls-2" d="m224.17,304.74h-.38v-6.62h2.03s-.75,2.56-.83,2.93c-.08.3-.68,3.01-.68,3.01l-.15.68Z"/>
    <path id="_Path_-73" class="cls-2" d="m235.15,282.33s-.53.23-.68.68c-.23.45-.98,1.13-.98,1.13v-2.48h2.18l-.53.68Z"/>
    <path id="_Path_-74" class="cls-2" d="m280.71,346.92c1.95,0,3.53,1.58,3.53,3.53s-1.58,3.46-3.53,3.46-3.46-1.58-3.46-3.46,1.58-3.53,3.46-3.53Z"/>
    <path id="_Path_-75" class="cls-2" d="m300.56,380.68h2.56v8.5h-2.56v-8.5Z"/>
    <path id="_Path_-76" class="cls-2" d="m310.19,380.68h2.56v8.5h-2.56v-8.5Z"/>
    <path id="_Path_-77" class="cls-2" d="m243.8,380.68h2.63v8.5h-2.63v-8.5Z"/>
    <path id="_Path_-78" class="cls-2" d="m253.5,380.68h2.56v8.5h-2.56v-8.5Z"/>
    <path id="_Path_-79" class="cls-2" d="m406.58,307.14h.75v24.14h-.75v-24.14Z"/>
    <path id="_Path_-80" class="cls-2" d="m399.29,356.77l-.38,1.35s-.9.98-2.26,1.28c-1.28.3-5.86,1.43-13.08,1.73-7.22.38-10.83-3.16-10.83-3.16,2.33.68,9.55,1.2,11.28,1.05,1.73-.08,8.42-1.35,9.62-1.5,1.28-.23,5.64-.75,5.79-.75h-.15Z"/>
    <path id="_Path_-81" class="cls-2" d="m357.18,376.02c-.53-.6,5.49,2.33,11.58,1.5s10.68-1.8,12.11-1.8,2.26.08,2.26.08l-2.18,2.93-2.03-.23s-2.63.15-4.66.45c-2.03.38-5.86.45-8.72.3-3.98-.15-7.74-2.63-8.35-3.23h0Z"/>
    <path id="_Path_-82" class="cls-2" d="m364.77,392.48l-.68,1.43-1.88,1.95s-1.13.3-2.71.6c-1.58.3-4.29,1.13-9.77.38-5.56-.75-7.52-3.16-7.52-3.16,0,0,1.13.38,2.63.83,1.5.45,6.39.75,10.45.6,3.98-.23,9.55-2.48,9.55-2.48l-.08-.15Z"/>
    <path id="_Path_-83" class="cls-2" d="m407.93,342.26l.53.83s-1.28.75-1.88.9-2.11.75-6.69-.08c-4.59-.75-6.32-3.01-6.32-3.01,0,0,3.53,1.05,7.07,1.5,3.46.45,6.92-.45,6.92-.45l.38.3Z"/>
    <path id="_Path_-84" class="cls-2" d="m330.56,414.96l.53.75s-1.28.75-1.8.9c-.6.15-2.18.75-6.77,0-4.59-.83-6.24-3.01-6.24-3.01,0,0,3.53,1.05,6.99,1.5,3.46.45,6.92-.45,6.92-.45l.38.3Z"/>
    <path id="_Path_-85" class="cls-2" d="m268.68,413.46s3.76,1.58,8.05,1.35c0,0,3.61.08,7.44-.9,3.83-.98,7.07-1.5,9.32-1.5s6.02.23,10.53,2.63c0,0-2.93-1.05-5.79-.98-2.93.15-7.97.75-11.58,1.58s-6.69,1.43-10.83.68c-4.14-.75-7.14-2.86-7.14-2.86Z"/>
    <path id="_Path_-86" class="cls-2" d="m249.14,422.56s3.76,1.58,8.05,1.43c0,0,3.61.08,7.44-.9,3.83-1.05,7.07-1.5,9.32-1.5s6.02.15,10.6,2.56c0,0-3.01-1.05-5.86-.9-2.93.15-7.97.75-11.58,1.58s-6.62,1.35-10.83.6c-4.14-.68-7.14-2.86-7.14-2.86h0Z"/>
    <path id="_Path_-87" class="cls-2" d="m201.32,421.13s3.76,1.58,8.05,1.43c0,0,3.53.08,7.37-.9,3.91-1.05,7.14-1.5,9.4-1.5s5.94.15,10.53,2.56c0,0-2.93-1.05-5.86-.9-2.86.15-7.97.75-11.58,1.58-3.61.83-6.62,1.35-10.75.6-4.21-.68-7.14-2.86-7.14-2.86h0Z"/>
    <path id="_Compound_Path_-16" class="cls-3" d="m323.65,404.74l11.8-12.03-2.63-5.34-10.9,10.98-.53-.53,74.21-74.59v-19.77l-2.71,2.41v3.68l-3.38,2.93v-3.38l-2.63,2.33v3.61l-3.61,3.46v-3.68l-2.78,2.48v3.83l-2.93,2.93v-3.98l-2.26,1.88v4.14l-2.93,2.86v-4.06l-2.26,1.88v4.14l-3.31,3.31v-4.29l-2.63,2.26v4.29l-3.23,3.31v-4.44l-2.48,2.11v4.51l-3.76,3.76v-4.59l-2.93,2.48v4.74l-3.53,3.53v-4.89l-2.71,2.33v4.96l-3.98,3.98v-5.11l-2.86,2.48v5.11l-4.36,4.44v-5.34l-3.38,2.93v5.49l-4.59,4.44v-5.49l-4.21,4.14-.53-.53,5.49-5.49v5.56l3.08-3.01v-5.41l4.89-4.29v5.19l2.86-2.93v-5.11l4.36-3.91v5.04l2.48-2.56v-4.89l4.21-3.68v4.74l2.03-2.03v-4.74l4.44-3.76v4.36l2.26-2.26v-4.51l3.98-3.46v4.29l1.73-1.8v-4.29l4.14-3.61v4.14l1.8-1.8v-4.21l3.76-3.08v3.83l1.43-1.35v-4.21l3.76-3.08v3.76l.53-.6h-.23v-28.12c-1.58-.15-2.86-1.35-2.86-3.01,0-1.13.45-2.03,1.28-2.56v-4.44l17.59-6.99,36.39.75v.75l-36.24-.75-16.99,6.69v3.53l.3-.08,17.82-6.99.23.68-17.97,7.07h-.08c-.98.38-1.58,1.2-1.65,2.33.08,1.28.98,2.18,2.33,2.26l17.07-6.69.15.38h.38v15.71h9.47c.25,0,.48.05.68.15v-13.76l17.44.53v-.15l.3.15,5.19.15v.75l-5.04-.15-2.11,4.66-.68-.3,1.95-4.44-7.97-.23,1.28,3.38-.68.3-1.43-3.68-7.07-.23,4.44,5.71-.6.45-4.29-5.49v12.63c.75.53,1.28,1.35,1.28,2.33,0,1.5-1.2,2.78-2.71,2.78h-9.47v23.16h17.82v.75h-18.05l-71.95,73.61-.53-.53Zm55.71-83.61l.38-.38v-3.83l4.29-3.76v3.61l2.11-2.03v-3.68l4.14-3.61v3.38l1.95-1.65v-3.68l3.38-3.08v-15.41l-16.24,6.39v27.74Zm8.65,17.74l7.59-7.74v-6.92l-9.7,9.7,2.11,4.96Zm-9.17,9.47l8.65-8.87-2.11-4.89-8.95,9.02,2.41,4.74Zm-9.85,10l9.32-9.47-2.41-4.74-9.32,9.32,2.41,4.89Zm-10,10.15l9.47-9.62-2.48-4.89-9.4,9.47,2.41,5.04Zm-10.83,11.05l10.23-10.45-2.48-5.04-10.3,10.38,2.56,5.11Zm-12.18,12.48l11.65-11.95-2.56-5.11-11.73,11.73,2.63,5.34Zm69.85-85.19c1.13,0,1.95-.9,1.95-1.95,0-1.13-.83-2.03-1.95-2.03h-9.47v3.98h9.47Z"/>
    <path id="_Path_-88" class="cls-2" d="m426.88,299.25c-.23.6-1.35,4.81-1.95,6.92-.68,2.03-3.23,9.1-4.96,13.61-1.8,4.51-4.96,11.5-4.96,11.5h-8.12v-24.14s.15-.1.45-.3c.23-.23.68-.68.83-1.73.15-.98-.83-1.95-.83-1.95,1.5-5.49,6.47-9.55,12.41-9.55,2.86,0,5.56.98,7.67,2.63,0,0-.3,2.33-.53,3.01h0Z"/>
    <path id="_Path_-89" class="cls-2" d="m394.7,332.41s5.19-.08,9.02,2.86c0,0-3.38-1.13-5.94-1.2-2.48-.08-4.74.23-4.96.3-.23.08,1.88-1.95,1.88-1.95h0Z"/>
    <path id="_Path_-90" class="cls-2" d="m377.71,349.92s4.81-.75,7.07-.98c2.18-.23,6.47-.68,9.85.53,3.38,1.13,5.49,2.41,6.62,3.38,1.2.98-1.43-1.88-7.14-2.11-5.64-.23-5.34.3-6.84.38-1.5.08-4.81.45-5.94.53-1.13.08-5.11.3-5.26.23-.23,0,.15-.38.15-.38l1.5-1.58Z"/>
    <path id="_Path_-91" class="cls-2" d="m359.44,368.57s4.14-.9,7.37-.53c5.64.53,7.97,2.63,7.97,2.63,0,0-5.49-1.58-9.17-.98-3.76.53-6.77,1.2-7.37,1.28h-1.05l2.26-2.41Z"/>
    <path id="_Path_-92" class="cls-2" d="m342.89,385.41s5.71-1.05,9.02-.75c3.23.23,7.97.98,10.98,3.38,0,0-4.21-1.58-7.67-1.58-3.46.08-8.35.68-9.62.9-1.2.15-4.44.3-4.66.23-.23-.08.98-1.13.98-1.13l.98-1.05Z"/>
    <path id="_Path_-93" class="cls-2" d="m326.13,402.63s1.05-.15,3.53.75c2.48.98,3.53,2.18,3.53,2.18,0,0-3.08-1.13-4.29-1.28-1.2-.08-2.33-.08-3.08-.15-.68-.15-.9-.23-.9-.23l.75-.98.45-.3Z"/>
    <path id="_Compound_Path_-17" class="cls-3" d="m125.6,298.42l.08-.23c-.4.15-.8.23-1.2.23l-51.35-.53v-.75l51.35.53c1.5,0,2.63-1.2,2.63-2.71s-1.13-2.63-2.56-2.63l-53.31-.6v-.75l53.31.6c.25,0,.5.03.75.08v-3.83l-54.21-1.05v-.75l54.96,1.13v.08l21.65,4.96v4.89c.83.53,1.43,1.43,1.43,2.56.08,1.95-1.35,3.08-2.93,3.16h-.08l-20.53-4.36Zm20.6,3.68c1.28-.15,2.18-.83,2.18-2.48,0-1.2-.98-2.11-2.33-2.41l-19.1-4.59c.6.68.9,1.5.9,2.41,0,1.13-.53,2.18-1.43,2.78l19.77,4.29Zm.08-5.56c.25.05.48.13.68.23v-3.91l-20.9-4.74v3.61l20.23,4.81Zm56.09,69.1v-5.41l-3.61-2.18v5.34l-4.96-2.93v-5.34l-3.83-2.33v5.26l-4.51-2.78v-5.19l-3.01-1.8v5.19l-4.36-2.78v-5.04l-3.23-1.95v4.96l-4.29-2.56v-5.04l-3.08-1.73v5.04l-3.76-2.48v-4.89l-2.48-1.5v4.96l-3.83-2.33v-4.96l-2.63-1.5v4.81l-4.06-2.56v-4.74l-2.93-1.8v4.81l-3.61-2.26v-4.74l-3.01-1.73v4.51l-4.14-2.41v-4.59l-3.38-2.03v24.59h-42.26v-.75h41.5v-25.11l4.89,2.86v4.59l2.63,1.58v-4.51l4.51,2.56v4.74l2.11,1.35v-4.81l4.36,2.78v4.66l2.63,1.65v-4.81l4.14,2.41v4.96l2.33,1.43v-4.89l3.98,2.33v4.96l2.26,1.5v-5.04l.23.15v-28.72l2.11-4.81.68.3-1.88,4.21h58.5v.75h-58.65v3.83h58.72v.75h-58.72v24.14l3.61,2.11v4.96l1.2.75v-29.55h53.98v.75h-53.23v9.17h7.22v.75h-7.22v2.56h7.22v.75h-7.22v16.02l.83.45v-4.96l4.66,2.86v5.11l2.93,1.8v-5.19l4.51,2.78v5.11l3.01,1.88v-5.26l5.34,3.23v5.34l3.46,2.03v-5.26l5.11,3.01v5.41l3.83,2.33v-5.34l5.26,3.16v-10.53h.75v11.8l-5.26-3.08v5.26l-5.34-3.16Z"/>
    <path id="_Path_-94" class="cls-2" d="m205.6,327.82c0-4.44,3.61-8.05,8.05-8.05s8.05,3.61,8.05,8.05v8.8h-16.09v-8.8Z"/>
    <path id="_Path_-95" class="cls-2" d="m193.8,355.11v-10.45l11.88-8.57,7.07,8.42h7.52v.75h-7.29v7.07h-.75v-7.07h-17.67v9.85h-.75Z"/>
    <path id="_Path_-96" class="cls-2" d="m196.65,343.08l-2.48,1.8v9.85l-4.66-2.78v5.34l-3.68-2.48v-5.11l-3.83-2.18.08,5.19-1.43-.83v-24.06c0-4.44,3.61-8.05,8.05-8.05s8.05,3.61,8.05,8.05l-.08,15.26Z"/>
    <path id="_Path_-97" class="cls-2" d="m145.83,302.41h.75v28.27h-.75v-28.27Z"/>
    <path id="_Path_-98" class="cls-2" d="m146.2,324.44l.68-.3s.68-1.13,1.05-1.5c.38-.45,1.35-1.73,1.88-2.33.53-.68,1.2-1.43,1.88-2.03.68-.53,2.11-1.73,2.63-2.33.6-.68,1.35-.9,2.03-1.58.75-.68,1.8-.83,2.26-1.28.53-.45,1.95-3.01,2.86-4.14.9-1.13,3.61-2.93,5.04-3.53,1.43-.6,2.63-.38,2.63-.38l-2.03,4.21-.23,33.53-2.56-1.5-.23-4.89-3.68-2.11-.23,4.51-2.18-1.28-.08-5.41-4.06-1.88-.08,4.51-2.48-1.35v-5.04l-4.14-2.33-.3,4.44-.68-.23v-5.79Z"/>
    <path id="_Compound_Path_-18" class="cls-3" d="m82.07,325.04v-.75h9.1c1.13-.08,1.95-.98,1.95-2.11s-.83-2.03-2.03-2.03h-11.2v-.75h11.2c1.58,0,2.78,1.28,2.78,2.78,0,1.58-1.2,2.78-2.71,2.86h-9.1Zm43.23,18.05v-18.05h-8.72c-1.5-.08-2.71-1.28-2.71-2.86s1.2-2.78,2.78-2.78h8.65v-21.35h.75v45.04h-.75Zm-10.68-20.9c0,1.13.9,2.03,1.95,2.11h8.72v-4.14h-8.65c-1.2,0-2.03.9-2.03,2.03Zm15.41,27.14h-33.91v-.75h33.76l2.78-5.86,89.77,56.24-.45.68-14.21-8.95-3.38,5.04,14.29,9.1-.45.6-88.2-56.09Zm21.73,12.93l2.78-4.89-10.15-6.39-2.86,4.81,10.23,6.47Zm10.83,6.84l3.23-4.74-10.6-6.62-2.78,4.89,10.15,6.47Zm12.41,7.97l3.31-4.89-11.88-7.37-3.23,4.74,11.8,7.52Zm13.31,8.42l3.31-4.89-12.71-7.97-3.23,4.81,12.63,8.05Zm15.41,9.85l3.46-5.04-14.89-9.32-3.38,4.89,14.81,9.47Zm-62.78-39.92l2.78-4.81-10.75-6.77-2.41,5.04,10.38,6.54Z"/>
    <path id="_Path_-99" class="cls-2" d="m114.92,320.38c-.38.23-.6.9-.75,2.03-.08,1.2,1.58,1.95,1.58,1.95v18.72h-23.31v-18.72s-.38.15,0-.23c.3-.3,1.05-1.13,1.13-2.03s-1.13-2.03-1.13-2.03c.23-6.32,5.34-11.35,11.65-11.35s11.43,4.96,11.65,11.28c0,0-.53.23-.83.38Z"/>
    <path id="_Compound_Path_-19" class="cls-2" d="m116.2,273.68c0-.9.38-1.5.38-2.03.15-.98,1.2-2.86,2.11-4.81.9-1.95,2.18-3.91,3.16-5.04,1.05-1.05,2.41-2.03,3.91-2.78,1.43-.83,3.83-2.63,4.96-3.46,1.05-.83.98-1.2,1.5-2.41.6-1.2,2.41-4.96,3.46-6.09,1.05-1.13,4.59-3.53,6.02-4.74,1.43-1.13,1.95-1.73,3.16-4.51,1.2-2.71,3.46-8.5,4.66-10.23,1.13-1.8,3.83-4.14,5.11-4.81,1.2-.53,5.26-2.86,6.99-4.74.83-.9.98-1.58.98-1.88v-.3l.68-.3c0,.08.08.23.08.6,0,.53-.23,1.35-1.13,2.33-1.95,2.11-6.02,4.36-7.22,4.96-1.13.6-3.91,2.93-4.89,4.51-1.05,1.58-3.38,7.44-4.59,10.23-1.2,2.71-1.88,3.53-3.38,4.74-1.43,1.2-5.04,3.68-5.94,4.66-.83.9-2.78,4.74-3.31,5.86-.45,1.05-.45,1.8-1.73,2.71-1.13.83-3.53,2.63-5.04,3.46-1.43.83-2.78,1.73-3.76,2.71-.9.98-2.18,2.93-3.01,4.81-.98,1.95-1.95,3.98-2.03,4.59-.08.75-.38,1.28-.38,1.95v.38l-.68.15-.08-.53Zm-24.21,46.32v-18.87h24.06v18.65h-.75v-14.06l-4.66,5.71-.6-.45,5.26-6.47v-2.63h-5.79l-2.03,8.2-.75-.15,2.03-8.05h-9.77l2.93,7.37-.68.3-3.08-7.67h-5.41v2.11l6.47,6.24-.45.53-6.02-5.71v14.96h-.75Zm0,4.21h.75v18.87h-.75v-18.87Zm23.31,0h.75v18.87h-.75v-18.87Z"/>
    <path id="_Path_-100" class="cls-2" d="m171.77,232.33s-1.13.38-1.65.45c-.6.08-2.18.08-3.46.3-1.35.23-3.91,1.88-4.81,2.78-.98.98-2.18,2.86-3.01,3.68-.75.75-.98.45-1.43.6-.45.15-1.65,1.35-1.95,1.65-.38.3-3.08,3.01-3.91,4.29-.9,1.35-2.18,3.61-2.41,4.36s-.53.53-.53.53c0,0,.83-2.41,1.5-3.61.6-1.28,1.88-3.08,2.86-4.21.9-1.2,3.16-3.38,3.83-3.91.6-.6,1.28-1.05,2.41-2.56,1.2-1.5,3.23-3.38,4.66-3.98s2.93-.53,4.66-.53,3.46-.38,3.46-.38l-.23.53Z"/>
    <path id="_Path_-101" class="cls-2" d="m178.23,236.47l.6.6-.75.15c-.45.08-1.05.23-1.73.6-.68.3-1.13.9-2.18,1.43-.98.45-2.41.68-2.56.68l-.45.53s-.38.15-.6.15-.38.6-.9.98c-.53.3-.9.83-1.05,1.13s-.53.45-.83.38c-.3,0,.3-.45.3-.45,0,0,.6-.68.98-1.05.45-.45.53-.75.75-.9.23-.23.38-.23.68-.45.23-.23.53-.6.9-.83.3-.23,1.5-.9,2.26-1.35.83-.38,1.95-1.35,2.48-1.65.6-.3,1.73-.3,1.73-.3l.38.38Z"/>
    <path id="_Path_-102" class="cls-2" d="m189.66,251.13l.23.45s-.75.23-.98.3-.6.15-.9.23c-.3.15-1.13.75-1.43.98-.23.23-.98.83-1.5,1.13s-.68.15-.68.15c0,0-.68.38-1.05.53-.38.23-.3.15-.83.75-.45.53-.75.6-.98,1.05-.3.45-.83.9-1.2,1.13-.3.15,0-.45,0-.45l.6-.53s.08-.23.45-.6c.3-.38.38-.45.75-.68.38-.3.08-.38.45-.75.3-.38.83-.83,1.2-1.13.3-.3,1.05-.68,1.35-.98.38-.23,1.13-1.05,1.5-1.28.3-.3.98-.3,1.13-.45.15-.08.6-.15.9-.23.23-.08.53-.15.53-.15l.45.53Z"/>
    <path id="_Path_-103" class="cls-2" d="m183.27,245.41l-.68.15h-1.28c-.23,0-1.2.38-1.43.38s-.6.08-1.2.38c-.53.3-.75.38-1.35.75-.6.45-1.05.45-1.43.83-.45.38-.53.45-.75.68-.23.15-.9.53-.9.53,0,0-.38.45-.6.68-.23.15-.45.45-.53.68-.08.3-1.13,1.35-1.28,1.65-.15.38-.45.23-.68.23-.23.08-.68.3-.98.38-.3.08-1.05.45-1.35.83-.38.38-.9,1.35-1.28,1.73-.45.38-.98,1.35-1.13,2.03-.15.68-.75,1.58-.9,2.26-.15.75-.6.3-.9.6-.38.3-.9.68-1.05.98s-.6.83-1.05,1.28c-.38.38-.9,1.28-1.13,1.8-.23.45-.53,1.65-.53,2.41-.08.83,0,1.35-.23,2.18-.15.9-.53.83-.98,1.65s-.75,1.05-.98,1.8c-.3.83-.45,1.73-.75,2.56-.23.9-.53,2.03-.68,2.33-.08.38-.08,1.65-.08,1.65,0,0-.08-1.05-.08-1.28-.08-.23-.15-.9.15-1.43.3-.45.15-1.05.15-1.05,0,0,.23-.68.15-1.05,0-.3.08-.9.38-1.35.3-.45.15-.68.23-1.13s.6-1.65.83-2.26c.3-.53.38-.9.38-1.43s.08-2.86.15-3.61c.08-.83.68-1.95,1.2-2.71.53-.83,1.58-1.73,2.03-2.03.53-.3,1.58-1.05,1.95-1.35.3-.3.15-.45.3-1.05s.53-1.05.75-1.58.83-1.43,1.28-2.26c.45-.83,1.28-1.35,1.5-1.5.23-.08,1.2-.45,1.8-.6.68-.15,1.28-.45,1.43-.68.23-.15.6-.53.98-.98.38-.45.38-.6.83-.83.53-.23.83-.45,1.28-.9.45-.38,1.13-.68,1.58-.83.53-.23.68-.38,1.05-.53s1.2-.3,1.8-.6c.6-.38,1.2-.38,1.8-.53.6-.15,1.73-.15,2.03-.15s.15.3.15.3h0Z"/>
    <path id="_Path_-104" class="cls-2" d="m131.99,254.51s-.23.75.23.83c.53.08,1.05-.45,1.43-.3.38.08,1.5-.3,1.8-.3.23-.08.75-.23.98-.23.15,0,1.43-.38,1.35-.15-.08.15-.98.68-1.65.83s-1.43.3-2.11.38c-.68.08-1.2.08-1.65.38-.45.3-1.65.75-2.11,1.13-.45.3-1.05.6-1.8.75-.83.23-1.88.9-2.18,1.28s-.23.6-1.05,1.43c-.75.75-2.41,1.8-3.01,2.33-.6.45-1.58,1.58-1.95,1.95-.3.38,1.5-2.33,1.5-2.33,0,0,2.86-2.63,3.31-2.78.45-.08,2.26-1.2,2.26-1.2,0,0,2.48-1.65,2.86-2.03.45-.45,1.58-1.2,1.58-1.2l.23-.75Z"/>
    <path id="_Path_-105" class="cls-2" d="m156.95,255.19s0,.23-.23.3c-.3.15-.68.23-1.05.23-.38.08-.38.15-.75.3-.3.15-.83.23-.98.45-.08.23-.9.53-1.2.6-.3.15-.98.53-1.28.9-.23.3-.68.53-1.13.83-.38.23-.68.38-1.05.75s-.83.68-1.28.98c-.45.3-1.13.38-1.28.38-.23,0-1.5.9-1.8,1.13s-.98.9-1.28,1.28c-.23.38-.15.45-.6.83s-.83.83-1.2,1.35c-.38.53-1.05,1.2-1.58,1.8-.53.53-.98.3-1.5.45-.45.15-1.28.23-1.73.6-.53.3-1.2.38-1.65.53-.45.15-1.5.9-2.11,1.28-.6.38-.83,1.05-1.28,1.43-.53.3-.75.53-1.05.68-.3.23-.83,1.43-1.2,1.88-.45.45-.83,1.05-1.05,1.43-.15.38-.68,1.13-1.05,1.58s-.68,1.05-.83,1.35q-.15.38-.23.23l.3-.9c.15-.15.23-.38.38-.68.15-.23.3-.45.38-.83,0-.3.08-.3.3-.83.23-.53.53-.75.98-1.5.53-.83.53-1.28,1.2-2.03.6-.75.98-.98,1.35-1.35.45-.38.53-.45,1.13-.98.6-.6.3-.38.68-.6.38-.3.83-.6,1.13-.9.38-.38.98-.6,1.58-1.05s1.58-.9,1.95-1.2c.45-.23,1.28-.3,1.58-.6.38-.38.98-.6,1.35-1.05.3-.45.38-.53.83-.98.45-.45.68-.38.9-.75.15-.38.53-.9,1.13-1.28.68-.45.75-.38,1.05-.68.3-.38.9-.53,1.2-.6.38-.08,1.05-.3,1.35-.68.38-.45.68-.15.9-.38.3-.23.9-.23,1.35-.53.53-.23.45-.15.9-.23.38-.15.45-.3.83-.6.3-.38.83-.68,1.43-.75.6,0,.9-.38,1.2-.68.23-.38.53-.3.9-.38.38-.15.38-.23.83-.45.38-.15,1.13-.15,1.13-.15l.15.08Z"/>
    <path id="_Path_-106" class="cls-2" d="m124.47,268.35l-.23.38s-.23.23-.53.45c-.3.23-.38.15-.98.45-.6.3-.3.38-.68.75-.3.3-1.2.83-1.65,1.2-.38.38-1.13,1.2-1.65,1.8s-.83,1.13-1.28,1.88-1.13,1.88-1.35,2.71c-.3.83-.6,1.58-.68,2.33-.15.68-.45,2.26-.6,2.86-.15.68-.23,2.11-.23,2.93,0,.9.3,1.13.3,1.13l-1.58-.15.38-.68.15-.98c.08-.15.08-.98.08-1.88.08-.83,0-1.05.15-1.73.23-.68.3-1.35.38-2.33.08-1.05.6-1.95.98-3.01s.53-.75.75-1.5c.23-.83-.3-.6-.38-.98-.08-.3.6-1.05.6-1.05,0,0,.6-1.8.9-2.26.3-.45.9-2.26.9-2.26,0,0,.08.83-.08,1.43s-.3,1.13-.6,1.88c-.23.83-.53.98-.45,1.43.08.53.3.15.53,0,.3-.15.68-.9,1.35-1.5.6-.6,1.65-1.05,3.38-2.11,1.73-1.05,2.11-1.5,2.11-1.5v.3Z"/>
    <path id="_Path_-107" class="cls-2" d="m147.48,278.35s-.45.38-.68.6c-.3.23-.9.3-1.43.53-.53.3-.3.08-1.13.98-.83.98-.6,1.2-.83,1.58s-.98.83-1.2,1.05c-.3.23-.75,1.05-.98,1.58-.15.53-.68,1.43-.98,1.73-.38.38-.53.75-.9,1.5-.38.68-.53,1.13-.6,1.88s.53.98.53.98l-2.48-.83s0-.15.23-.38c.15-.23.23-.98.45-1.5.15-.53.08-.53.83-1.2.68-.68,0-.38.3-.83s.68-1.05.83-1.28c.23-.23.68-.98.98-1.2.3-.23.08-.23.45-.9.38-.68,1.28-1.5,1.73-1.8.45-.38,1.58-1.13,1.88-1.58.3-.38,1.28-.53,1.28-.53,0,0,.53-.3.98-.45.53-.08.83-.23.83-.23l-.08.3Z"/>
    <path id="_Path_-108" class="cls-2" d="m164.85,283.61c-.23.38-.15.45-.45,1.43-.3.98,0,.38-.68,1.65-.68,1.35-.45.75-1.05,1.35-.53.68-.15.53-.98,1.2s-.6,1.28-1.28,2.26c-.6.98-1.05,2.26-1.28,3.01s-.38,1.95-.68,2.63c-.3.75-.6,1.8-.83,2.18-.15.3-.75.9-1.2,1.28-.53.45-.83,1.05-1.43,1.58-.53.6-.98.83-1.8,1.95-.83,1.2-1.58,1.5-1.95,2.11-.45.6-.08.83-1.28,1.8-1.13.98-1.05,1.58-1.73,2.78-.68,1.2-.38.98-.38.98v-1.28c.08-.6.08-.23.3-.68.3-.53.08-.6.15-.9.08-.23.45-.68.68-.98.23-.38.38-.53.6-1.35.23-.83,1.13-1.8,1.58-2.56s1.05-1.2,1.43-1.65c.38-.38.75-1.13,1.5-1.65.75-.6,1.35-1.5,1.73-2.26.45-.75.75-1.05.98-2.11.15-1.05.68-1.5.83-2.41.15-.9.23-1.05.75-2.03.6-1.05.68-1.28,1.13-1.88.38-.6.75-.53.98-1.05.23-.45.68-.53.9-.75.23-.15.98-.83,1.2-1.35.3-.53,1.28-1.65,1.5-2.18.23-.53.23-.9.53-1.5.3-.53.53-.83.53-.83,0,0-.15.83-.3,1.2h0Z"/>
    <path id="_Path_-109" class="cls-2" d="m221.02,412.86s3.68,1.58,8.05,1.43c0,0,3.53.08,7.37-.98,3.83-.98,7.14-1.43,9.32-1.43s6.02.15,10.6,2.56c0,0-3.01-1.05-5.86-.9-2.86.15-7.97.75-11.58,1.58s-6.62,1.35-10.83.6c-4.14-.75-7.07-2.86-7.07-2.86h0Z"/>
    <path id="_Path_-110" class="cls-2" d="m173.8,411.58s3.76,1.58,8.05,1.43c0,0,3.61.08,7.44-.98,3.83-.98,7.07-1.43,9.32-1.43s6.02.15,10.53,2.56c0,0-2.93-1.05-5.79-.9-2.93.15-7.97.75-11.58,1.58-3.68.83-6.69,1.35-10.83.6-4.14-.75-7.14-2.86-7.14-2.86Z"/>
    <path id="_Path_-111" class="cls-2" d="m148.83,402.41s3.76,1.58,8.05,1.35c0,0,3.53.08,7.37-.9,3.83-1.05,7.14-1.5,9.32-1.5s6.02.23,10.6,2.63c0,0-2.93-1.05-5.86-.98-2.86.15-7.97.75-11.58,1.58-3.61.83-6.62,1.43-10.75.68-4.21-.75-7.14-2.86-7.14-2.86Z"/>
    <path id="_Path_-112" class="cls-2" d="m151.77,384.21s3.76,1.58,8.05,1.35c0,0,3.61.15,7.44-.9,3.83-.98,7.07-1.43,9.32-1.43s5.94.15,10.53,2.56c0,0-2.93-1.05-5.86-.98-2.86.15-7.89.75-11.5,1.58-3.68.83-6.69,1.43-10.83.68-4.14-.75-7.14-2.86-7.14-2.86h0Z"/>
    <path id="_Path_-113" class="cls-2" d="m128.76,375.64s3.76,1.58,8.05,1.35c0,0,3.53.08,7.44-.9,3.83-1.05,7.07-1.5,9.32-1.5s5.94.23,10.53,2.63c0,0-2.93-1.13-5.86-.98-2.86.15-7.97.75-11.58,1.58-3.61.83-6.62,1.43-10.75.68-4.21-.75-7.14-2.86-7.14-2.86h0Z"/>
    <path id="_Path_-114" class="cls-2" d="m201.09,393.68c-2.48.3-5.34.68-7.59,1.2-3.61.83-6.62,1.43-10.75.68-4.21-.75-7.14-2.86-7.14-2.86,0,0,3.76,1.58,8.05,1.35,0,0,3.53.08,7.37-.9,2.71-.75,5.11-1.13,7.07-1.35l3.01,1.88Z"/>
    <path id="_Path_-115" class="cls-2" d="m218.16,404.44c-2.56.3.6-.15-1.65.3-3.61.83-6.69,1.43-10.83.68-4.14-.75-7.14-2.86-7.14-2.86,0,0,3.76,1.58,8.05,1.35,0,0,3.61.15,7.44-.9,2.71-.68-.6-.3,1.43-.53l2.71,1.95Z"/>
    <path id="_Path_-116" class="cls-2" d="m143.2,357.07c-2.48.3-1.13.15-3.46.68-3.61.83-6.62,1.43-10.75.68-4.21-.75-7.14-2.86-7.14-2.86,0,0,3.76,1.58,8.05,1.35,0,0,3.53.08,7.44-.9,2.63-.75,1.05-.6,3.01-.75l2.86,1.8Z"/>
    <path id="_Path_-117" class="cls-2" d="m161.39,368.65c-2.48.3,1.88-.45-.38.08-3.61.83-6.62,1.35-10.75.6-4.21-.68-7.14-2.86-7.14-2.86,0,0,3.76,1.58,8.05,1.43,0,0,3.53.08,7.37-.9,2.71-.75-1.5.15.45-.08l2.41,1.73Z"/>
    <path id="_Path_-118" class="cls-2" d="m166.58,191.88l1.88.45v5.71l-1.88-.6v-5.56Z"/>
    <path id="_Path_-119" class="cls-2" d="m166.58,184.44l1.88.45v5.64l-1.88-.6v-5.49Z"/>
    <path id="_Compound_Path_-20" class="cls-3" d="m227.48,141.05l.23-.15c3.61-2.03,9.62-3.46,16.47-3.46s13.08,1.35,16.69,3.38l.23.15-.15,14.06-.53-.3c-3.68-1.73-9.55-2.93-16.09-2.93s-12.63,1.2-16.32,3.01l-.53.3v-14.06Zm20.98-1.28v-1.35c-.75-.05-1.53-.1-2.33-.15v1.35c.8.05,1.58.1,2.33.15Zm-20.23,14.21c3.83-1.8,9.55-2.86,16.09-2.93,6.39.08,12.03,1.13,15.86,2.86l.15-12.11-.15-.08c-.38-.23-.68-.38-1.05-.53v2.33l-.53-.3c-.6-.3-1.28-.6-1.95-.83l-.23-.08v-2.18c-.45-.15-.95-.3-1.5-.45l.08,2.11-.53-.15c-.9-.25-1.88-.48-2.93-.68l-.3-.08v-1.88c-.68-.15-1.35-.23-2.03-.3v1.95l-.45-.08c-.98-.15-1.95-.23-3.01-.23l-.38-.08v-1.88h-2.03v1.88h-.38c-1,0-2.01.05-3.01.15h-.38v-1.8c-.65.05-1.28.13-1.88.23v1.8l-.3.08c-.85.1-1.68.25-2.48.45l-.45.08v-1.88c-.6.15-1.15.3-1.65.45l.15,1.8-1.28.45c-.83.23-.75.23-1.43.53l-.53.23v-1.95c-.55.2-1.05.43-1.5.68v12.41Zm26.02-13.08l-.08-1.58c-.7-.15-1.43-.3-2.18-.45v1.5c.8.15,1.55.33,2.26.53h0Zm-23.76.83c.3-.08.45-.15.98-.3l.75-.23-.15-1.2c-.55.15-1.08.33-1.58.53v1.2Zm27.89.6v-1.8c-.35-.15-.75-.3-1.2-.45v1.73c.45.15.85.33,1.2.53Zm-23.16-1.95c.55-.1,1.13-.2,1.73-.3v-1.28c-.6.1-1.18.2-1.73.3v1.28Zm5.11-.68c.75-.05,1.5-.08,2.26-.08v-1.35l-2.26.15v1.28Zm-43.16,187.07h7.59v.75h-7.59v-.75Zm25.04,0h4.66v.68h-4.66v-.68Zm-25.04,3.31h7.59v.75h-7.59v-.75Zm25.04,0h4.06v.75h-4.06v-.75Z"/>
    <path id="_Path_-120" class="cls-2" d="m107.86,367.97s3.61.08,7.44-.9c3.83-1.05,7.07-1.5,9.32-1.5s6.02.15,10.6,2.56c0,0-3.01-1.05-5.86-.9-2.93.15-7.97.75-11.58,1.58-2.93.68-5.41,1.13-8.5.9"/>
    <path id="_Path_-121" class="cls-2" d="m124.02,383.98c2.71-.6,5.04-.83,6.69-.83,2.26,0,6.02.15,10.6,2.56,0,0-2.93-1.05-5.86-.9-2.41.15-6.47.6-9.85,1.2"/>
    <path id="_Path_-122" class="cls-2" d="m136.58,394.44s3.53.15,7.44-.9c3.83-1.05,7.07-1.5,9.32-1.5s5.94.23,10.53,2.63c0,0-2.93-1.13-5.86-.98-2.86.15-7.89.75-11.58,1.58-3.01.75-5.64,1.2-8.95.9"/>
    <path id="_Path_-123" class="cls-2" d="m98.98,354.21c1.88-.38,3.53-.53,4.89-.53,2.26,0,6.02.23,10.53,2.63,0,0-2.93-1.13-5.86-.98-2.26.15-5.86.53-9.1,1.13"/>
    <path id="_Path_-124" class="cls-2" d="m119.66,381.43c-33.38-33.61-54.06-80.08-54.06-131.43s20.68-97.82,54.06-131.43c33.31-33.68,79.47-54.44,130.38-54.44v1.95c-50.38,0-95.94,20.6-128.95,53.91-33.01,33.23-53.46,79.25-53.46,130s20.45,96.77,53.46,130.08c33.01,33.23,78.57,53.83,128.95,53.83s95.94-20.6,128.95-53.83c33.01-33.31,53.38-79.25,53.38-130.08s-20.38-96.77-53.38-130c-33.01-33.31-78.57-53.91-128.95-53.91v-1.95c50.9,0,96.99,20.75,130.38,54.44,33.38,33.61,53.98,80.08,53.98,131.43s-20.6,97.82-53.98,131.43c-33.38,33.68-79.47,54.44-130.38,54.44s-97.07-20.75-130.38-54.44h0Z"/>
    <path id="_Path_-125" class="cls-2" d="m119.66,381.43c-33.38-33.61-54.06-80.08-54.06-131.43s20.68-97.82,54.06-131.43c33.31-33.68,79.47-54.44,130.38-54.44v1.95c-50.38,0-95.94,20.6-128.95,53.91-33.01,33.23-53.46,79.25-53.46,130s20.45,96.77,53.46,130.08c33.01,33.23,78.57,53.83,128.95,53.83s95.94-20.6,128.95-53.83c33.01-33.31,53.38-79.25,53.38-130.08s-20.38-96.77-53.38-130c-33.01-33.31-78.57-53.91-128.95-53.91v-1.95c50.9,0,96.99,20.75,130.38,54.44,33.38,33.61,53.98,80.08,53.98,131.43s-20.6,97.82-53.98,131.43c-33.38,33.68-79.47,54.44-130.38,54.44s-97.07-20.75-130.38-54.44h0Z"/>
    <path id="_Path_-126" class="cls-2" d="m119.21,381.88c-33.53-33.76-54.21-80.38-54.21-131.88s20.68-98.12,54.21-131.88c33.46-33.76,79.7-54.66,130.83-54.66h.6v3.31h-.6c-50.23,0-95.64,20.45-128.5,53.61-32.93,33.23-53.31,79.02-53.31,129.62s20.38,96.39,53.31,129.62c32.86,33.16,78.27,53.61,128.5,53.61s95.56-20.45,128.5-53.61c32.86-33.23,53.23-79.02,53.23-129.62s-20.38-96.39-53.23-129.62c-32.93-33.16-78.35-53.61-128.5-53.61h-.68v-3.31h.68c51.05,0,97.37,20.9,130.83,54.66,33.46,33.76,54.14,80.38,54.14,131.88s-20.68,98.12-54.14,131.88c-33.46,33.76-79.77,54.66-130.83,54.66s-97.37-20.9-130.83-54.66l.45-.45.45-.45c33.23,33.53,79.17,54.29,129.92,54.29s96.69-20.75,129.92-54.29c33.23-33.53,53.83-79.85,53.83-130.98s-20.6-97.44-53.83-130.98c-33.23-33.53-79.17-54.29-129.92-54.29v-.6h.6v1.95h-.6v-.6c50.53,0,96.24,20.68,129.4,54.06,33.08,33.38,53.61,79.47,53.61,130.45s-20.53,97.07-53.61,130.45c-33.16,33.46-78.87,54.06-129.4,54.06s-96.32-20.6-129.4-54.06c-33.16-33.38-53.61-79.47-53.61-130.45s20.45-97.07,53.61-130.45c33.08-33.38,78.87-54.06,129.4-54.06v.6h-.68v-1.95h.68v.6c-50.75,0-96.69,20.75-129.92,54.29-33.31,33.53-53.83,79.85-53.83,130.98s20.53,97.44,53.83,130.98l-.45.45-.45.45Z"/>
    <path id="_Path_-127" class="cls-2" d="m74.02,270.6h-1.05c0-2.11,0-3.66,0-4.66-.05-1-.15-2.51-.3-4.51h1.05l.08,1.13c.05,1,.28,1.58.68,1.73.4.2,2.23.25,5.49.15l6.62-.3c2.46-.05,4.14-.23,5.04-.53.95-.25,1.73-.9,2.33-1.95.65-1.05.95-2.43.9-4.14-.1-1.75-.5-3.23-1.2-4.44-.55-.8-1.33-1.38-2.33-1.73-1.05-.35-3.01-.48-5.86-.38l-6.32.23c-2.96.1-4.66.28-5.11.53-.4.3-.58.98-.53,2.03v.83l-1.05.08v-4.14c-.05-.95-.13-2.13-.23-3.53h1.05v1.05c.05.8.33,1.33.83,1.58.45.2,2.13.25,5.04.15l6.32-.23c2.91-.1,4.86-.03,5.86.23,1,.2,1.93.65,2.78,1.35.85.65,1.53,1.55,2.03,2.71.5,1.15.78,2.53.83,4.14s-.1,3.03-.45,4.29c-.4,1.25-.9,2.21-1.5,2.86-.6.6-1.33,1.08-2.18,1.43-.9.3-2.43.48-4.59.53l-3.23.08-5.11.23c-3.21.1-4.99.25-5.34.45-.4.15-.58.7-.53,1.65v1.13Z"/>
    <path id="_Path_-128" class="cls-2" d="m74.02,270.6h-1.05c0-2.11,0-3.66,0-4.66-.05-1-.15-2.51-.3-4.51h1.05l.08,1.13c.05,1,.28,1.58.68,1.73.4.2,2.23.25,5.49.15l6.62-.3c2.46-.05,4.14-.23,5.04-.53.95-.25,1.73-.9,2.33-1.95.65-1.05.95-2.43.9-4.14-.1-1.75-.5-3.23-1.2-4.44-.55-.8-1.33-1.38-2.33-1.73-1.05-.35-3.01-.48-5.86-.38l-6.32.23c-2.96.1-4.66.28-5.11.53-.4.3-.58.98-.53,2.03v.83l-1.05.08v-4.14c-.05-.95-.13-2.13-.23-3.53h1.05v1.05c.05.8.33,1.33.83,1.58.45.2,2.13.25,5.04.15l6.32-.23c2.91-.1,4.86-.03,5.86.23,1,.2,1.93.65,2.78,1.35.85.65,1.53,1.55,2.03,2.71.5,1.15.78,2.53.83,4.14s-.1,3.03-.45,4.29c-.4,1.25-.9,2.21-1.5,2.86-.6.6-1.33,1.08-2.18,1.43-.9.3-2.43.48-4.59.53l-3.23.08-5.11.23c-3.21.1-4.99.25-5.34.45-.4.15-.58.7-.53,1.65v1.13Z"/>
    <path id="_Path_-129" class="cls-2" d="m76.35,239.55l11.65,1.5c2.61.3,4.44.48,5.49.53.8,0,1.3-.05,1.5-.15.2-.2.4-.7.6-1.5l.15-.98,1.05.15c-.2,1.1-.35,2.13-.45,3.08-.1.6-.23,2.06-.38,4.36l-1.13-.15.15-1.13c.1-.7.05-1.15-.15-1.35-.15-.25-.53-.43-1.13-.53-1.2-.3-2.86-.58-4.96-.83l-8.35-1.05c-1.6-.2-3.16-.38-4.66-.53-.65-.05-1.1-.03-1.35.08-.25.1-.5.28-.75.53-.2.25-.35.63-.45,1.13l-.08.98-1.05-.15c.25-1.3.4-2.31.45-3.01.1-.75.18-1.58.23-2.48,1.45-.85,2.88-1.63,4.29-2.33,1.4-.75,2.81-1.55,4.21-2.41l7.67-4.36c2.76-1.6,4.69-2.78,5.79-3.53l-10.75-1.35c-4.51-.55-6.99-.78-7.44-.68-.45.1-.8.68-1.05,1.73l-.23,1.13-1.05-.15c.3-1.65.5-2.93.6-3.83.1-1,.2-2.26.3-3.76l1.05.15-.15,1.2c-.1.95.18,1.53.83,1.73.45.15,2.91.5,7.37,1.05l7.59.98c2.01.25,4.44.48,7.29.68-.4,1.35-.68,2.16-.83,2.41-.1.2-.3.38-.6.53-1.5,1-3.16,2.03-4.96,3.08l-16.32,9.25Z"/>
    <path id="_Path_-130" class="cls-2" d="m76.35,239.55l11.65,1.5c2.61.3,4.44.48,5.49.53.8,0,1.3-.05,1.5-.15.2-.2.4-.7.6-1.5l.15-.98,1.05.15c-.2,1.1-.35,2.13-.45,3.08-.1.6-.23,2.06-.38,4.36l-1.13-.15.15-1.13c.1-.7.05-1.15-.15-1.35-.15-.25-.53-.43-1.13-.53-1.2-.3-2.86-.58-4.96-.83l-8.35-1.05c-1.6-.2-3.16-.38-4.66-.53-.65-.05-1.1-.03-1.35.08-.25.1-.5.28-.75.53-.2.25-.35.63-.45,1.13l-.08.98-1.05-.15c.25-1.3.4-2.31.45-3.01.1-.75.18-1.58.23-2.48,1.45-.85,2.88-1.63,4.29-2.33,1.4-.75,2.81-1.55,4.21-2.41l7.67-4.36c2.76-1.6,4.69-2.78,5.79-3.53l-10.75-1.35c-4.51-.55-6.99-.78-7.44-.68-.45.1-.8.68-1.05,1.73l-.23,1.13-1.05-.15c.3-1.65.5-2.93.6-3.83.1-1,.2-2.26.3-3.76l1.05.15-.15,1.2c-.1.95.18,1.53.83,1.73.45.15,2.91.5,7.37,1.05l7.59.98c2.01.25,4.44.48,7.29.68-.4,1.35-.68,2.16-.83,2.41-.1.2-.3.38-.6.53-1.5,1-3.16,2.03-4.96,3.08l-16.32,9.25Z"/>
    <path id="_Path_-131" class="cls-2" d="m98.16,220.75l.23-.98c.2-.95.08-1.58-.38-1.88-.45-.3-2.81-.9-7.07-1.8l-5.64-1.2c-4.41-.95-6.87-1.4-7.37-1.35-.45.05-.78.5-.98,1.35l-.23,1.2-1.05-.23c.45-1.65.85-3.31,1.2-4.96.25-1.4.45-2.66.6-3.76l1.05.23-.23,1.13c-.15.75-.15,1.23,0,1.43.15.25.6.48,1.35.68,1.15.3,3.26.78,6.32,1.43l5.71,1.2c4.26.95,6.64,1.38,7.14,1.28.45-.1.78-.6.98-1.5l.23-1.05.98.23c-.3,1.25-.6,2.61-.9,4.06-.4,1.75-.7,3.33-.9,4.74l-1.05-.23Z"/>
    <path id="_Path_-132" class="cls-2" d="m98.16,220.75l.23-.98c.2-.95.08-1.58-.38-1.88-.45-.3-2.81-.9-7.07-1.8l-5.64-1.2c-4.41-.95-6.87-1.4-7.37-1.35-.45.05-.78.5-.98,1.35l-.23,1.2-1.05-.23c.45-1.65.85-3.31,1.2-4.96.25-1.4.45-2.66.6-3.76l1.05.23-.23,1.13c-.15.75-.15,1.23,0,1.43.15.25.6.48,1.35.68,1.15.3,3.26.78,6.32,1.43l5.71,1.2c4.26.95,6.64,1.38,7.14,1.28.45-.1.78-.6.98-1.5l.23-1.05.98.23c-.3,1.25-.6,2.61-.9,4.06-.4,1.75-.7,3.33-.9,4.74l-1.05-.23Z"/>
    <path id="_Path_-133" class="cls-2" d="m104.32,202.33c-1.55-.05-3.03-.05-4.44,0l-16.17.6c-2.31.05-3.58.1-3.83.15-.2.1-.43.5-.68,1.2l-.15.6-1.05-.3c.6-1.55,1.05-2.86,1.35-3.91.4-1.15.83-2.56,1.28-4.21l1.13.38-.45,1.5c-.2.5-.25.85-.15,1.05.05.15.18.28.38.38l.45.08,6.17-.15,12.33-.38-9.25-7.37c-3.21-2.51-5.11-3.86-5.71-4.06-.5-.15-.85.05-1.05.6l-.23.53-.53,1.28-1.05-.38c.5-1.25.9-2.31,1.2-3.16.25-.9.58-2.06.98-3.46l.98.38-.23.6c-.15.45-.13.83.08,1.13.15.3.88.98,2.18,2.03l11.65,9.32c2.16,1.75,3.93,3.08,5.34,3.98l-.53,1.58Z"/>
    <path id="_Path_-134" class="cls-2" d="m104.32,202.33c-1.55-.05-3.03-.05-4.44,0l-16.17.6c-2.31.05-3.58.1-3.83.15-.2.1-.43.5-.68,1.2l-.15.6-1.05-.3c.6-1.55,1.05-2.86,1.35-3.91.4-1.15.83-2.56,1.28-4.21l1.13.38-.45,1.5c-.2.5-.25.85-.15,1.05.05.15.18.28.38.38l.45.08,6.17-.15,12.33-.38-9.25-7.37c-3.21-2.51-5.11-3.86-5.71-4.06-.5-.15-.85.05-1.05.6l-.23.53-.53,1.28-1.05-.38c.5-1.25.9-2.31,1.2-3.16.25-.9.58-2.06.98-3.46l.98.38-.23.6c-.15.45-.13.83.08,1.13.15.3.88.98,2.18,2.03l11.65,9.32c2.16,1.75,3.93,3.08,5.34,3.98l-.53,1.58Z"/>
    <path id="_Path_-135" class="cls-2" d="m99.74,181.43l3.76,1.8,2.18.98c1.3.65,2.28,1.1,2.93,1.35.75-1.3,1.48-2.76,2.18-4.36.5-1.05.88-1.95,1.13-2.71.15-.5.23-1.05.23-1.65-.75-.65-1.75-1.43-3.01-2.33l.45-.9c2.11,1.3,3.53,2.13,4.29,2.48l.68.3c-.4,1.15-.83,2.23-1.28,3.23l-1.05,2.26c-1.2,2.41-2.08,4.19-2.63,5.34-.5,1.1-1.13,2.58-1.88,4.44l-.98-.45.23-.45c.35-.8.5-1.35.45-1.65-.1-.3-.45-.63-1.05-.98-.6-.4-2.01-1.13-4.21-2.18l-8.42-3.98c-1.4-.65-2.56-1.15-3.46-1.5-.9-.35-1.45-.53-1.65-.53s-.38.05-.53.15c-.15.05-.43.4-.83,1.05l-.6,1.05-.9-.45.68-1.5.75-1.5c.4-.8.7-1.43.9-1.88l2.41-5.49,1.2-2.56c.4-.9.85-1.78,1.35-2.63,1,.95,2.48,1.9,4.44,2.86l-.45.9c-1.15-.5-2.13-.88-2.93-1.13-.95.9-1.8,2.16-2.56,3.76-.6,1.3-1.15,2.68-1.65,4.14.95.45,1.9.93,2.86,1.43l2.33,1.13,3.16,1.5c.45-.9.85-1.73,1.2-2.48,1.05-2.21,1.55-3.51,1.5-3.91-.05-.4-.5-.8-1.35-1.2l-.98-.45.38-.98c1.55.8,2.78,1.43,3.68,1.88.95.45,2.11.95,3.46,1.5l-.45.98-.83-.45c-1-.45-1.7-.55-2.11-.3-.35.25-1.03,1.45-2.03,3.61-.35.8-.68,1.63-.98,2.48h0Z"/>
    <path id="_Path_-136" class="cls-2" d="m99.74,181.43l3.76,1.8,2.18.98c1.3.65,2.28,1.1,2.93,1.35.75-1.3,1.48-2.76,2.18-4.36.5-1.05.88-1.95,1.13-2.71.15-.5.23-1.05.23-1.65-.75-.65-1.75-1.43-3.01-2.33l.45-.9c2.11,1.3,3.53,2.13,4.29,2.48l.68.3c-.4,1.15-.83,2.23-1.28,3.23l-1.05,2.26c-1.2,2.41-2.08,4.19-2.63,5.34-.5,1.1-1.13,2.58-1.88,4.44l-.98-.45.23-.45c.35-.8.5-1.35.45-1.65-.1-.3-.45-.63-1.05-.98-.6-.4-2.01-1.13-4.21-2.18l-8.42-3.98c-1.4-.65-2.56-1.15-3.46-1.5-.9-.35-1.45-.53-1.65-.53s-.38.05-.53.15c-.15.05-.43.4-.83,1.05l-.6,1.05-.9-.45.68-1.5.75-1.5c.4-.8.7-1.43.9-1.88l2.41-5.49,1.2-2.56c.4-.9.85-1.78,1.35-2.63,1,.95,2.48,1.9,4.44,2.86l-.45.9c-1.15-.5-2.13-.88-2.93-1.13-.95.9-1.8,2.16-2.56,3.76-.6,1.3-1.15,2.68-1.65,4.14.95.45,1.9.93,2.86,1.43l2.33,1.13,3.16,1.5c.45-.9.85-1.73,1.2-2.48,1.05-2.21,1.55-3.51,1.5-3.91-.05-.4-.5-.8-1.35-1.2l-.98-.45.38-.98c1.55.8,2.78,1.43,3.68,1.88.95.45,2.11.95,3.46,1.5l-.45.98-.83-.45c-1-.45-1.7-.55-2.11-.3-.35.25-1.03,1.45-2.03,3.61-.35.8-.68,1.63-.98,2.48h0Z"/>
    <path id="_Path_-137" class="cls-2" d="m111.09,158.72c1.9.05,4.14.03,6.69-.08l5.19-.23c.9-.05,1.43-.13,1.58-.23l.45-.3.23-.38.9.6c-.55.65-1,1.25-1.35,1.8-.3.5-.6,1.05-.9,1.65l-9.77.15c-1.8.05-3.61.18-5.41.38l-.38-.45c.35-.45.6-.8.75-1.05.95-1.45,1.28-2.86.98-4.21-.25-1.4-1.08-2.56-2.48-3.46-1.2-.8-2.36-1.08-3.46-.83-1.15.25-2.16,1.05-3.01,2.41-.6.9-1,1.93-1.2,3.08,1.45,1.1,3.03,2.23,4.74,3.38l6.84,4.51c3.31,2.21,5.21,3.33,5.71,3.38.45.1.93-.25,1.43-1.05l.68-1.05.9.6c-1,1.4-1.8,2.58-2.41,3.53-.5.75-1.35,2.13-2.56,4.14l-.9-.53.68-1.05c.45-.7.55-1.25.3-1.65-.25-.35-2.08-1.65-5.49-3.91l-6.77-4.51c-2.96-1.9-4.66-2.91-5.11-3.01-.45-.05-.95.38-1.5,1.28l-.45.68-.9-.6c1.1-1.55,1.93-2.76,2.48-3.61.35-.6.85-1.45,1.5-2.56.75-1.3,1.3-2.23,1.65-2.78,1-1.5,1.9-2.53,2.71-3.08.85-.55,1.73-.8,2.63-.75.95,0,1.88.3,2.78.9,1.3.9,2.18,2.13,2.63,3.68.45,1.55.33,3.28-.38,5.19h0Z"/>
    <path id="_Path_-138" class="cls-2" d="m111.09,158.72c1.9.05,4.14.03,6.69-.08l5.19-.23c.9-.05,1.43-.13,1.58-.23l.45-.3.23-.38.9.6c-.55.65-1,1.25-1.35,1.8-.3.5-.6,1.05-.9,1.65l-9.77.15c-1.8.05-3.61.18-5.41.38l-.38-.45c.35-.45.6-.8.75-1.05.95-1.45,1.28-2.86.98-4.21-.25-1.4-1.08-2.56-2.48-3.46-1.2-.8-2.36-1.08-3.46-.83-1.15.25-2.16,1.05-3.01,2.41-.6.9-1,1.93-1.2,3.08,1.45,1.1,3.03,2.23,4.74,3.38l6.84,4.51c3.31,2.21,5.21,3.33,5.71,3.38.45.1.93-.25,1.43-1.05l.68-1.05.9.6c-1,1.4-1.8,2.58-2.41,3.53-.5.75-1.35,2.13-2.56,4.14l-.9-.53.68-1.05c.45-.7.55-1.25.3-1.65-.25-.35-2.08-1.65-5.49-3.91l-6.77-4.51c-2.96-1.9-4.66-2.91-5.11-3.01-.45-.05-.95.38-1.5,1.28l-.45.68-.9-.6c1.1-1.55,1.93-2.76,2.48-3.61.35-.6.85-1.45,1.5-2.56.75-1.3,1.3-2.23,1.65-2.78,1-1.5,1.9-2.53,2.71-3.08.85-.55,1.73-.8,2.63-.75.95,0,1.88.3,2.78.9,1.3.9,2.18,2.13,2.63,3.68.45,1.55.33,3.28-.38,5.19h0Z"/>
    <path id="_Path_-139" class="cls-2" d="m118.31,131.28c.7,1,1.8,2.13,3.31,3.38l-.68.83-1.05-.83c-.65-.6-1.18-.93-1.58-.98-.4,0-1.03.23-1.88.68-.85.5-1.6,1.13-2.26,1.88-1.05,1.3-1.53,2.61-1.43,3.91.1,1.35.7,2.48,1.8,3.38.7.6,1.43.98,2.18,1.13.7.1,1.38,0,2.03-.3.65-.35,1.73-1.28,3.23-2.78,1.55-1.5,2.71-2.41,3.46-2.71.75-.35,1.6-.43,2.56-.23.9.2,1.78.65,2.63,1.35,1.75,1.5,2.71,3.46,2.86,5.86.15,2.41-.7,4.71-2.56,6.92-.65.8-1.38,1.5-2.18,2.11-.8.65-1.7,1.23-2.71,1.73-.9-1-2.18-2.21-3.83-3.61l.68-.83.68.6c.85.7,1.4,1.1,1.65,1.2.25.1.63.08,1.13-.08.65-.15,1.33-.43,2.03-.83.7-.5,1.33-1.1,1.88-1.8,1.25-1.5,1.83-2.98,1.73-4.44-.1-1.5-.73-2.76-1.88-3.76-.7-.6-1.4-.95-2.11-1.05-.7-.15-1.38-.08-2.03.23-.65.3-1.6,1.08-2.86,2.33-1.65,1.7-2.91,2.73-3.76,3.08-.85.4-1.75.5-2.71.3-.95-.2-1.93-.73-2.93-1.58-1.7-1.45-2.63-3.18-2.78-5.19-.1-2.06.65-4.09,2.26-6.09.7-.8,1.48-1.5,2.33-2.11.8-.65,1.73-1.23,2.78-1.73h0Z"/>
    <path id="_Path_-140" class="cls-2" d="m118.31,131.28c.7,1,1.8,2.13,3.31,3.38l-.68.83-1.05-.83c-.65-.6-1.18-.93-1.58-.98-.4,0-1.03.23-1.88.68-.85.5-1.6,1.13-2.26,1.88-1.05,1.3-1.53,2.61-1.43,3.91.1,1.35.7,2.48,1.8,3.38.7.6,1.43.98,2.18,1.13.7.1,1.38,0,2.03-.3.65-.35,1.73-1.28,3.23-2.78,1.55-1.5,2.71-2.41,3.46-2.71.75-.35,1.6-.43,2.56-.23.9.2,1.78.65,2.63,1.35,1.75,1.5,2.71,3.46,2.86,5.86.15,2.41-.7,4.71-2.56,6.92-.65.8-1.38,1.5-2.18,2.11-.8.65-1.7,1.23-2.71,1.73-.9-1-2.18-2.21-3.83-3.61l.68-.83.68.6c.85.7,1.4,1.1,1.65,1.2.25.1.63.08,1.13-.08.65-.15,1.33-.43,2.03-.83.7-.5,1.33-1.1,1.88-1.8,1.25-1.5,1.83-2.98,1.73-4.44-.1-1.5-.73-2.76-1.88-3.76-.7-.6-1.4-.95-2.11-1.05-.7-.15-1.38-.08-2.03.23-.65.3-1.6,1.08-2.86,2.33-1.65,1.7-2.91,2.73-3.76,3.08-.85.4-1.75.5-2.71.3-.95-.2-1.93-.73-2.93-1.58-1.7-1.45-2.63-3.18-2.78-5.19-.1-2.06.65-4.09,2.26-6.09.7-.8,1.48-1.5,2.33-2.11.8-.65,1.73-1.23,2.78-1.73h0Z"/>
    <path id="_Path_-141" class="cls-2" d="m136.5,144.14l.68-.75c.65-.7.85-1.28.6-1.73-.25-.5-1.93-2.31-5.04-5.41l-4.14-3.98c-3.21-3.21-5.04-4.91-5.49-5.11s-.98,0-1.58.6l-.83.9-.75-.75c1.2-1.2,2.38-2.41,3.53-3.61,1-1,1.85-1.95,2.56-2.86l.75.75-.83.9c-.5.5-.75.9-.75,1.2.05.25.33.68.83,1.28.85.85,2.38,2.38,4.59,4.59l4.21,4.14c3.16,3.06,4.96,4.69,5.41,4.89s1-.05,1.65-.75l.68-.75.75.75c-.9.85-1.88,1.83-2.93,2.93-1.2,1.25-2.26,2.43-3.16,3.53l-.75-.75Z"/>
    <path id="_Path_-142" class="cls-2" d="m136.5,144.14l.68-.75c.65-.7.85-1.28.6-1.73-.25-.5-1.93-2.31-5.04-5.41l-4.14-3.98c-3.21-3.21-5.04-4.91-5.49-5.11s-.98,0-1.58.6l-.83.9-.75-.75c1.2-1.2,2.38-2.41,3.53-3.61,1-1,1.85-1.95,2.56-2.86l.75.75-.83.9c-.5.5-.75.9-.75,1.2.05.25.33.68.83,1.28.85.85,2.38,2.38,4.59,4.59l4.21,4.14c3.16,3.06,4.96,4.69,5.41,4.89s1-.05,1.65-.75l.68-.75.75.75c-.9.85-1.88,1.83-2.93,2.93-1.2,1.25-2.26,2.43-3.16,3.53l-.75-.75Z"/>
    <path id="_Path_-143" class="cls-2" d="m137.18,113.53c1,1.4,2.11,2.83,3.31,4.29l6.17,7.52c2.31,2.76,3.66,4.24,4.06,4.44.35.2.9-.05,1.65-.75l.9-.75.68.9c-1.45,1.1-2.66,2.06-3.61,2.86-1,.85-2.16,1.88-3.46,3.08l-.68-.83.98-.83c.55-.45.83-.8.83-1.05.05-.3-.1-.7-.45-1.2-.75-1.05-1.8-2.41-3.16-4.06l-6.17-7.52c-1.25-1.45-2.41-2.78-3.46-3.98l-1.2,1.05c-1.95,1.65-2.98,2.61-3.08,2.86-.15.25.05.75.6,1.5l1.28,1.88-.75.68-1.28-1.58c-.5-.65-1.3-1.53-2.41-2.63,4.31-3.56,6.84-5.66,7.59-6.32l6.39-5.64c1.1,1.6,2.21,3.11,3.31,4.51l-.75.68-1.5-1.65c-.55-.55-.9-.85-1.05-.9-.2-.05-.45.05-.75.3-.95.65-1.98,1.45-3.08,2.41l-.9.75Z"/>
    <path id="_Path_-144" class="cls-2" d="m137.18,113.53c1,1.4,2.11,2.83,3.31,4.29l6.17,7.52c2.31,2.76,3.66,4.24,4.06,4.44.35.2.9-.05,1.65-.75l.9-.75.68.9c-1.45,1.1-2.66,2.06-3.61,2.86-1,.85-2.16,1.88-3.46,3.08l-.68-.83.98-.83c.55-.45.83-.8.83-1.05.05-.3-.1-.7-.45-1.2-.75-1.05-1.8-2.41-3.16-4.06l-6.17-7.52c-1.25-1.45-2.41-2.78-3.46-3.98l-1.2,1.05c-1.95,1.65-2.98,2.61-3.08,2.86-.15.25.05.75.6,1.5l1.28,1.88-.75.68-1.28-1.58c-.5-.65-1.3-1.53-2.41-2.63,4.31-3.56,6.84-5.66,7.59-6.32l6.39-5.64c1.1,1.6,2.21,3.11,3.31,4.51l-.75.68-1.5-1.65c-.55-.55-.9-.85-1.05-.9-.2-.05-.45.05-.75.3-.95.65-1.98,1.45-3.08,2.41l-.9.75Z"/>
    <path id="_Compound_Path_-21" class="cls-3" d="m161.17,113.46l-7.29,5.19.68,2.86c.5,1.9.85,3.03,1.05,3.38.15.2.33.33.53.38.15,0,.45-.13.9-.38l1.35-.68.6.9c-.85.5-1.78,1.1-2.78,1.8-1.2.85-2.26,1.65-3.16,2.41l-.6-.9.38-.3c.6-.45.93-.78.98-.98.1-.25.1-.68,0-1.28-.35-1.8-.75-3.71-1.2-5.71l-2.56-11.2c-.7-3.01-1.25-5.14-1.65-6.39l.9-.6,17.82,12.03c1.2.8,1.95,1.25,2.26,1.35.3.15.58.2.83.15.25,0,.7-.23,1.35-.68l.6.9c-1.1.7-2.16,1.4-3.16,2.11-.95.65-2.16,1.58-3.61,2.78l-.68-.9,1.2-.98c.45-.35.68-.6.68-.75l-.08-.53c-.1-.15-.53-.5-1.28-1.05l-4.06-2.93Zm-7.59,3.68l6.32-4.51-8.95-6.17,2.63,10.68Z"/>
    <path id="_Compound_Path_-22" class="cls-3" d="m161.17,113.46l-7.29,5.19.68,2.86c.5,1.9.85,3.03,1.05,3.38.15.2.33.33.53.38.15,0,.45-.13.9-.38l1.35-.68.6.9c-.85.5-1.78,1.1-2.78,1.8-1.2.85-2.26,1.65-3.16,2.41l-.6-.9.38-.3c.6-.45.93-.78.98-.98.1-.25.1-.68,0-1.28-.35-1.8-.75-3.71-1.2-5.71l-2.56-11.2c-.7-3.01-1.25-5.14-1.65-6.39l.9-.6,17.82,12.03c1.2.8,1.95,1.25,2.26,1.35.3.15.58.2.83.15.25,0,.7-.23,1.35-.68l.6.9c-1.1.7-2.16,1.4-3.16,2.11-.95.65-2.16,1.58-3.61,2.78l-.68-.9,1.2-.98c.45-.35.68-.6.68-.75l-.08-.53c-.1-.15-.53-.5-1.28-1.05l-4.06-2.93Zm-7.59,3.68l6.32-4.51-8.95-6.17,2.63,10.68Z"/>
    <path id="_Path_-145" class="cls-2" d="m173.87,88.87c.3,1.15.9,2.61,1.8,4.36l-.98.53-.6-1.2c-.4-.8-.78-1.3-1.13-1.5-.35-.15-1-.18-1.95-.08-.95.1-1.88.4-2.78.9-1.45.8-2.38,1.83-2.78,3.08-.4,1.25-.28,2.53.38,3.83.45.8,1,1.4,1.65,1.8.65.4,1.33.58,2.03.53.7-.05,2.03-.5,3.98-1.35,2.01-.8,3.41-1.2,4.21-1.2.85-.05,1.65.2,2.41.75.8.5,1.45,1.28,1.95,2.33,1.1,2.01,1.28,4.16.53,6.47-.75,2.26-2.41,4.09-4.96,5.49-.85.45-1.78.83-2.78,1.13-1,.25-2.06.43-3.16.53-.45-1.3-1.18-2.91-2.18-4.81l.9-.45.38.75c.55.95.93,1.53,1.13,1.73s.55.33,1.05.38c.7.15,1.45.15,2.26,0,.75-.2,1.53-.5,2.33-.9,1.7-.95,2.81-2.13,3.31-3.53.45-1.4.3-2.78-.45-4.14-.4-.8-.9-1.4-1.5-1.8-.6-.4-1.28-.58-2.03-.53-.7,0-1.85.35-3.46,1.05-2.16.95-3.68,1.43-4.59,1.43-.95.05-1.83-.2-2.63-.75-.85-.55-1.58-1.43-2.18-2.63-1-1.95-1.2-3.91-.6-5.86.6-1.9,2.03-3.48,4.29-4.74.9-.45,1.88-.83,2.93-1.13,1-.25,2.08-.4,3.23-.45h0Z"/>
    <path id="_Path_-146" class="cls-2" d="m173.87,88.87c.3,1.15.9,2.61,1.8,4.36l-.98.53-.6-1.2c-.4-.8-.78-1.3-1.13-1.5-.35-.15-1-.18-1.95-.08-.95.1-1.88.4-2.78.9-1.45.8-2.38,1.83-2.78,3.08-.4,1.25-.28,2.53.38,3.83.45.8,1,1.4,1.65,1.8.65.4,1.33.58,2.03.53.7-.05,2.03-.5,3.98-1.35,2.01-.8,3.41-1.2,4.21-1.2.85-.05,1.65.2,2.41.75.8.5,1.45,1.28,1.95,2.33,1.1,2.01,1.28,4.16.53,6.47-.75,2.26-2.41,4.09-4.96,5.49-.85.45-1.78.83-2.78,1.13-1,.25-2.06.43-3.16.53-.45-1.3-1.18-2.91-2.18-4.81l.9-.45.38.75c.55.95.93,1.53,1.13,1.73s.55.33,1.05.38c.7.15,1.45.15,2.26,0,.75-.2,1.53-.5,2.33-.9,1.7-.95,2.81-2.13,3.31-3.53.45-1.4.3-2.78-.45-4.14-.4-.8-.9-1.4-1.5-1.8-.6-.4-1.28-.58-2.03-.53-.7,0-1.85.35-3.46,1.05-2.16.95-3.68,1.43-4.59,1.43-.95.05-1.83-.2-2.63-.75-.85-.55-1.58-1.43-2.18-2.63-1-1.95-1.2-3.91-.6-5.86.6-1.9,2.03-3.48,4.29-4.74.9-.45,1.88-.83,2.93-1.13,1-.25,2.08-.4,3.23-.45h0Z"/>
    <path id="_Path_-147" class="cls-2" d="m186.8,92.63c.4-.15.8-.13,1.2.08.4.2.68.5.83.9.15.45.15.88,0,1.28-.15.45-.43.75-.83.9-.4.15-.8.13-1.2-.08-.4-.15-.68-.45-.83-.9-.2-.45-.23-.88-.08-1.28.2-.4.5-.7.9-.9h0Z"/>
    <path id="_Path_-148" class="cls-2" d="m186.8,92.63c.4-.15.8-.13,1.2.08.4.2.68.5.83.9.15.45.15.88,0,1.28-.15.45-.43.75-.83.9-.4.15-.8.13-1.2-.08-.4-.15-.68-.45-.83-.9-.2-.45-.23-.88-.08-1.28.2-.4.5-.7.9-.9h0Z"/>
    <path id="_Path_-149" class="cls-2" d="m207.18,76.62c.05,1.2.35,2.76.9,4.66l-1.05.3-.38-1.28c-.25-.85-.53-1.4-.83-1.65-.3-.25-.93-.4-1.88-.45-1-.1-1.98,0-2.93.3-1.55.5-2.66,1.33-3.31,2.48-.6,1.15-.7,2.43-.3,3.83.25.85.65,1.55,1.2,2.11.55.5,1.18.8,1.88.9.75.05,2.16-.13,4.21-.53,2.11-.4,3.56-.53,4.36-.38.85.1,1.6.5,2.26,1.2.65.65,1.15,1.53,1.5,2.63.65,2.21.4,4.36-.75,6.47-1.2,2.11-3.18,3.56-5.94,4.36-.9.3-1.88.5-2.93.6-1,.1-2.06.08-3.16-.08-.2-1.35-.63-3.06-1.28-5.11l1.05-.3.23.83c.3,1.05.55,1.68.75,1.88.15.25.45.45.9.6.65.3,1.4.43,2.26.38.8,0,1.63-.13,2.48-.38,1.85-.6,3.13-1.53,3.83-2.78.75-1.3.9-2.71.45-4.21-.3-.85-.7-1.53-1.2-2.03-.55-.5-1.18-.8-1.88-.9-.7-.15-1.9-.03-3.61.38-2.26.5-3.86.68-4.81.53-.9-.15-1.7-.58-2.41-1.28-.7-.75-1.25-1.75-1.65-3.01-.6-2.11-.43-4.06.53-5.86.95-1.8,2.66-3.08,5.11-3.83,1-.3,2.03-.48,3.08-.53,1.05-.1,2.16-.05,3.31.15h0Z"/>
    <path id="_Path_-150" class="cls-2" d="m207.18,76.62c.05,1.2.35,2.76.9,4.66l-1.05.3-.38-1.28c-.25-.85-.53-1.4-.83-1.65-.3-.25-.93-.4-1.88-.45-1-.1-1.98,0-2.93.3-1.55.5-2.66,1.33-3.31,2.48-.6,1.15-.7,2.43-.3,3.83.25.85.65,1.55,1.2,2.11.55.5,1.18.8,1.88.9.75.05,2.16-.13,4.21-.53,2.11-.4,3.56-.53,4.36-.38.85.1,1.6.5,2.26,1.2.65.65,1.15,1.53,1.5,2.63.65,2.21.4,4.36-.75,6.47-1.2,2.11-3.18,3.56-5.94,4.36-.9.3-1.88.5-2.93.6-1,.1-2.06.08-3.16-.08-.2-1.35-.63-3.06-1.28-5.11l1.05-.3.23.83c.3,1.05.55,1.68.75,1.88.15.25.45.45.9.6.65.3,1.4.43,2.26.38.8,0,1.63-.13,2.48-.38,1.85-.6,3.13-1.53,3.83-2.78.75-1.3.9-2.71.45-4.21-.3-.85-.7-1.53-1.2-2.03-.55-.5-1.18-.8-1.88-.9-.7-.15-1.9-.03-3.61.38-2.26.5-3.86.68-4.81.53-.9-.15-1.7-.58-2.41-1.28-.7-.75-1.25-1.75-1.65-3.01-.6-2.11-.43-4.06.53-5.86.95-1.8,2.66-3.08,5.11-3.83,1-.3,2.03-.48,3.08-.53,1.05-.1,2.16-.05,3.31.15h0Z"/>
    <path id="_Path_-151" class="cls-2" d="m221.69,74.36c.15,1.7.38,3.51.68,5.41l1.5,9.62c.55,3.61.93,5.59,1.13,5.94.25.35.88.45,1.88.3l1.13-.23.15,1.05c-1.8.25-3.33.48-4.59.68-1.25.2-2.76.48-4.51.83l-.15-1.05,1.28-.23c.65-.1,1.08-.28,1.28-.53.15-.25.2-.65.15-1.2-.1-1.35-.3-3.08-.6-5.19l-1.5-9.62c-.3-1.95-.63-3.71-.98-5.26l-1.5.23c-2.51.4-3.88.7-4.14.9-.25.15-.33.68-.23,1.58l.08,2.33-.9.15-.3-2.03c-.15-.85-.4-2.03-.75-3.53,5.51-.8,8.75-1.28,9.7-1.43l8.35-1.43c.1,1.95.28,3.81.53,5.56l-.9.15-.53-2.18c-.15-.75-.3-1.2-.45-1.35-.15-.1-.43-.15-.83-.15-1.1.1-2.36.28-3.76.53l-1.2.15Z"/>
    <path id="_Path_-152" class="cls-2" d="m221.69,74.36c.15,1.7.38,3.51.68,5.41l1.5,9.62c.55,3.61.93,5.59,1.13,5.94.25.35.88.45,1.88.3l1.13-.23.15,1.05c-1.8.25-3.33.48-4.59.68-1.25.2-2.76.48-4.51.83l-.15-1.05,1.28-.23c.65-.1,1.08-.28,1.28-.53.15-.25.2-.65.15-1.2-.1-1.35-.3-3.08-.6-5.19l-1.5-9.62c-.3-1.95-.63-3.71-.98-5.26l-1.5.23c-2.51.4-3.88.7-4.14.9-.25.15-.33.68-.23,1.58l.08,2.33-.9.15-.3-2.03c-.15-.85-.4-2.03-.75-3.53,5.51-.8,8.75-1.28,9.7-1.43l8.35-1.43c.1,1.95.28,3.81.53,5.56l-.9.15-.53-2.18c-.15-.75-.3-1.2-.45-1.35-.15-.1-.43-.15-.83-.15-1.1.1-2.36.28-3.76.53l-1.2.15Z"/>
    <path id="_Path_-153" class="cls-2" d="m231.54,72.03v-1.05h4.51c1.05-.05,2.53-.15,4.44-.3l.08,1.05-1.13.08c-.95,0-1.53.23-1.73.68-.2.4-.23,2.26-.08,5.56l.23,6.77c.05,2.46.23,4.16.53,5.11.25.95.9,1.73,1.95,2.33,1,.65,2.36.95,4.06.9,1.7-.05,3.16-.48,4.36-1.28.8-.5,1.38-1.28,1.73-2.33.35-1.05.45-3.01.3-5.86l-.15-6.54c-.15-2.96-.35-4.66-.6-5.11-.25-.4-.9-.58-1.95-.53h-.83v-1.05c2.11,0,3.43-.03,3.98-.08.95,0,2.13-.08,3.53-.23v1.05l-1.05.08c-.8.05-1.3.33-1.5.83-.25.45-.33,2.16-.23,5.11l.23,6.39c.1,2.96.05,4.96-.15,6.02-.25,1-.7,1.93-1.35,2.78-.65.85-1.55,1.53-2.71,2.03-1.1.55-2.46.85-4.06.9-1.6.05-3.01-.13-4.21-.53-1.25-.35-2.18-.83-2.78-1.43-.65-.65-1.13-1.4-1.43-2.26-.3-.9-.48-2.46-.53-4.66l-.08-3.23-.23-5.26c-.1-3.21-.25-5.01-.45-5.41-.15-.4-.7-.58-1.65-.53h-1.05Z"/>
    <path id="_Path_-154" class="cls-2" d="m231.54,72.03v-1.05h4.51c1.05-.05,2.53-.15,4.44-.3l.08,1.05-1.13.08c-.95,0-1.53.23-1.73.68-.2.4-.23,2.26-.08,5.56l.23,6.77c.05,2.46.23,4.16.53,5.11.25.95.9,1.73,1.95,2.33,1,.65,2.36.95,4.06.9,1.7-.05,3.16-.48,4.36-1.28.8-.5,1.38-1.28,1.73-2.33.35-1.05.45-3.01.3-5.86l-.15-6.54c-.15-2.96-.35-4.66-.6-5.11-.25-.4-.9-.58-1.95-.53h-.83v-1.05c2.11,0,3.43-.03,3.98-.08.95,0,2.13-.08,3.53-.23v1.05l-1.05.08c-.8.05-1.3.33-1.5.83-.25.45-.33,2.16-.23,5.11l.23,6.39c.1,2.96.05,4.96-.15,6.02-.25,1-.7,1.93-1.35,2.78-.65.85-1.55,1.53-2.71,2.03-1.1.55-2.46.85-4.06.9-1.6.05-3.01-.13-4.21-.53-1.25-.35-2.18-.83-2.78-1.43-.65-.65-1.13-1.4-1.43-2.26-.3-.9-.48-2.46-.53-4.66l-.08-3.23-.23-5.26c-.1-3.21-.25-5.01-.45-5.41-.15-.4-.7-.58-1.65-.53h-1.05Z"/>
    <path id="_Compound_Path_-23" class="cls-3" d="m258.16,93.08c.35-1.75.8-4.84,1.35-9.25l.6-4.89c.25-2.06.4-3.81.45-5.26,0-.85-.05-1.38-.15-1.58-.1-.15-.5-.33-1.2-.53l-1.2-.3.15-1.13c1.65.3,2.78.48,3.38.53l4.14.45,3.31.38c1.35.15,2.73.48,4.14.98,1.35.5,2.56,1.3,3.61,2.41,1,1.1,1.73,2.41,2.18,3.91.4,1.55.5,3.28.3,5.19-.5,3.81-2.06,6.82-4.66,9.02-2.61,2.26-5.79,3.13-9.55,2.63l-1.88-.23c-1.8-.3-2.96-.5-3.46-.6-.8-.1-1.85-.15-3.16-.15l.08-.83,1.58-.75Zm3.31.3c1.35.4,2.56.68,3.61.83,2.86.35,5.19-.2,6.99-1.65,2.11-1.75,3.38-4.54,3.83-8.35.4-3.31-.08-5.94-1.43-7.89-1.35-1.9-3.56-3.06-6.62-3.46-1.1-.1-2.38-.13-3.83-.08-.3,1.05-.53,2.28-.68,3.68l-1.35,11.13c-.25,2.06-.43,3.98-.53,5.79Z"/>
    <path id="_Compound_Path_-24" class="cls-3" d="m258.16,93.08c.35-1.75.8-4.84,1.35-9.25l.6-4.89c.25-2.06.4-3.81.45-5.26,0-.85-.05-1.38-.15-1.58-.1-.15-.5-.33-1.2-.53l-1.2-.3.15-1.13c1.65.3,2.78.48,3.38.53l4.14.45,3.31.38c1.35.15,2.73.48,4.14.98,1.35.5,2.56,1.3,3.61,2.41,1,1.1,1.73,2.41,2.18,3.91.4,1.55.5,3.28.3,5.19-.5,3.81-2.06,6.82-4.66,9.02-2.61,2.26-5.79,3.13-9.55,2.63l-1.88-.23c-1.8-.3-2.96-.5-3.46-.6-.8-.1-1.85-.15-3.16-.15l.08-.83,1.58-.75Zm3.31.3c1.35.4,2.56.68,3.61.83,2.86.35,5.19-.2,6.99-1.65,2.11-1.75,3.38-4.54,3.83-8.35.4-3.31-.08-5.94-1.43-7.89-1.35-1.9-3.56-3.06-6.62-3.46-1.1-.1-2.38-.13-3.83-.08-.3,1.05-.53,2.28-.68,3.68l-1.35,11.13c-.25,2.06-.43,3.98-.53,5.79Z"/>
    <path id="_Path_-155" class="cls-2" d="m278.91,96.47l.98.15c.9.2,1.5.08,1.8-.38.3-.45.9-2.83,1.8-7.14l1.2-5.71c.95-4.46,1.38-6.94,1.28-7.44-.05-.5-.48-.85-1.28-1.05l-1.2-.23.23-1.05c1.65.4,3.28.78,4.89,1.13,1.35.3,2.58.53,3.68.68l-.15,1.13-1.2-.3c-.7-.15-1.18-.15-1.43,0-.2.15-.4.63-.6,1.43-.3,1.15-.78,3.26-1.43,6.32l-1.2,5.86c-.9,4.31-1.3,6.72-1.2,7.22.05.45.55.8,1.5,1.05l.98.15-.23,1.05c-1.2-.3-2.53-.63-3.98-.98-1.7-.35-3.26-.63-4.66-.83l.23-1.05Z"/>
    <path id="_Path_-156" class="cls-2" d="m278.91,96.47l.98.15c.9.2,1.5.08,1.8-.38.3-.45.9-2.83,1.8-7.14l1.2-5.71c.95-4.46,1.38-6.94,1.28-7.44-.05-.5-.48-.85-1.28-1.05l-1.2-.23.23-1.05c1.65.4,3.28.78,4.89,1.13,1.35.3,2.58.53,3.68.68l-.15,1.13-1.2-.3c-.7-.15-1.18-.15-1.43,0-.2.15-.4.63-.6,1.43-.3,1.15-.78,3.26-1.43,6.32l-1.2,5.86c-.9,4.31-1.3,6.72-1.2,7.22.05.45.55.8,1.5,1.05l.98.15-.23,1.05c-1.2-.3-2.53-.63-3.98-.98-1.7-.35-3.26-.63-4.66-.83l.23-1.05Z"/>
    <path id="_Compound_Path_-25" class="cls-3" d="m291.47,87.59c1.15-3.56,3.11-6.09,5.86-7.59,2.76-1.55,5.86-1.75,9.32-.6,3.36,1.1,5.66,3.01,6.92,5.71,1.3,2.66,1.4,5.66.3,9.02-1.15,3.61-3.23,6.27-6.24,7.97-3.01,1.7-6.19,2.01-9.55.9-2.11-.7-3.78-1.78-5.04-3.23-1.2-1.45-1.95-3.26-2.26-5.41-.3-2.16-.08-4.41.68-6.77h0Zm3.38-.38c-.8,2.46-1.1,4.74-.9,6.84.15,2.06.73,3.76,1.73,5.11.95,1.3,2.26,2.23,3.91,2.78,1.5.5,2.96.55,4.36.15,1.35-.4,2.61-1.28,3.76-2.63,1.15-1.3,2.08-3.06,2.78-5.26.7-2.31.95-4.39.75-6.24-.15-1.9-.73-3.46-1.73-4.66-1-1.25-2.36-2.16-4.06-2.71-1.55-.55-3.01-.63-4.36-.23-1.35.35-2.58,1.13-3.68,2.33-1.1,1.15-1.95,2.66-2.56,4.51h0Z"/>
    <path id="_Compound_Path_-26" class="cls-3" d="m291.47,87.59c1.15-3.56,3.11-6.09,5.86-7.59,2.76-1.55,5.86-1.75,9.32-.6,3.36,1.1,5.66,3.01,6.92,5.71,1.3,2.66,1.4,5.66.3,9.02-1.15,3.61-3.23,6.27-6.24,7.97-3.01,1.7-6.19,2.01-9.55.9-2.11-.7-3.78-1.78-5.04-3.23-1.2-1.45-1.95-3.26-2.26-5.41-.3-2.16-.08-4.41.68-6.77h0Zm3.38-.38c-.8,2.46-1.1,4.74-.9,6.84.15,2.06.73,3.76,1.73,5.11.95,1.3,2.26,2.23,3.91,2.78,1.5.5,2.96.55,4.36.15,1.35-.4,2.61-1.28,3.76-2.63,1.15-1.3,2.08-3.06,2.78-5.26.7-2.31.95-4.39.75-6.24-.15-1.9-.73-3.46-1.73-4.66-1-1.25-2.36-2.16-4.06-2.71-1.55-.55-3.01-.63-4.36-.23-1.35.35-2.58,1.13-3.68,2.33-1.1,1.15-1.95,2.66-2.56,4.51h0Z"/>
    <path id="_Path_-157" class="cls-2" d="m325.23,100.6c.25,1.9.58,4.16.98,6.77l.83,5.11c.15.9.28,1.43.38,1.58l.38.38.38.23-.45.98c-.75-.45-1.4-.83-1.95-1.13-.55-.25-1.13-.48-1.73-.68l-1.35-9.85c-.25-1.8-.58-3.61-.98-5.41l.38-.45c.5.3.88.53,1.13.68,1.55.75,2.98.9,4.29.45,1.3-.45,2.31-1.43,3.01-2.93.65-1.3.78-2.51.38-3.61-.4-1.1-1.28-2.01-2.63-2.71-1-.5-2.08-.78-3.23-.83-.9,1.55-1.8,3.26-2.71,5.11l-3.53,7.44c-1.75,3.66-2.66,5.71-2.71,6.17-.05.5.38.95,1.28,1.35l1.05.53-.45.98c-1.5-.8-2.76-1.45-3.76-1.95-.8-.4-2.26-1.08-4.36-2.03l.45-.98,1.05.53c.8.4,1.35.43,1.65.08.35-.3,1.4-2.28,3.16-5.94l3.61-7.44c1.5-3.16,2.26-4.99,2.26-5.49.05-.45-.4-.9-1.35-1.35l-.75-.38.45-.98c1.7.9,3.01,1.58,3.91,2.03.6.3,1.48.7,2.63,1.2,1.35.6,2.33,1.05,2.93,1.35,1.6.8,2.71,1.6,3.31,2.41.65.75,1.03,1.6,1.13,2.56.1.9-.1,1.85-.6,2.86-.65,1.45-1.73,2.51-3.23,3.16-1.45.65-3.18.73-5.19.23h0Z"/>
    <path id="_Path_-158" class="cls-2" d="m325.23,100.6c.25,1.9.58,4.16.98,6.77l.83,5.11c.15.9.28,1.43.38,1.58l.38.38.38.23-.45.98c-.75-.45-1.4-.83-1.95-1.13-.55-.25-1.13-.48-1.73-.68l-1.35-9.85c-.25-1.8-.58-3.61-.98-5.41l.38-.45c.5.3.88.53,1.13.68,1.55.75,2.98.9,4.29.45,1.3-.45,2.31-1.43,3.01-2.93.65-1.3.78-2.51.38-3.61-.4-1.1-1.28-2.01-2.63-2.71-1-.5-2.08-.78-3.23-.83-.9,1.55-1.8,3.26-2.71,5.11l-3.53,7.44c-1.75,3.66-2.66,5.71-2.71,6.17-.05.5.38.95,1.28,1.35l1.05.53-.45.98c-1.5-.8-2.76-1.45-3.76-1.95-.8-.4-2.26-1.08-4.36-2.03l.45-.98,1.05.53c.8.4,1.35.43,1.65.08.35-.3,1.4-2.28,3.16-5.94l3.61-7.44c1.5-3.16,2.26-4.99,2.26-5.49.05-.45-.4-.9-1.35-1.35l-.75-.38.45-.98c1.7.9,3.01,1.58,3.91,2.03.6.3,1.48.7,2.63,1.2,1.35.6,2.33,1.05,2.93,1.35,1.6.8,2.71,1.6,3.31,2.41.65.75,1.03,1.6,1.13,2.56.1.9-.1,1.85-.6,2.86-.65,1.45-1.73,2.51-3.23,3.16-1.45.65-3.18.73-5.19.23h0Z"/>
    <path id="_Path_-159" class="cls-2" d="m340.19,96.02l.6-.9c1.65,1.3,2.88,2.23,3.68,2.78.8.6,2.03,1.43,3.68,2.48l-.6.9-.9-.68c-.8-.55-1.4-.7-1.8-.45-.4.2-1.53,1.65-3.38,4.36l-3.83,5.56c-1.4,2.01-2.28,3.46-2.63,4.36-.3.95-.23,1.98.23,3.08.4,1.15,1.3,2.23,2.71,3.23,1.4,1,2.81,1.55,4.21,1.65.95.05,1.88-.23,2.78-.83.9-.65,2.16-2.16,3.76-4.51l3.68-5.26c1.7-2.46,2.56-3.93,2.56-4.44.05-.5-.35-1.08-1.2-1.73l-.68-.45.6-.9c1.7,1.3,2.78,2.13,3.23,2.48.75.55,1.73,1.2,2.93,1.95l-.6.83-.9-.6c-.65-.45-1.2-.55-1.65-.3-.45.25-1.5,1.58-3.16,3.98l-3.68,5.26c-1.65,2.41-2.88,3.96-3.68,4.66-.75.7-1.65,1.18-2.71,1.43-1.05.3-2.18.3-3.38,0-1.2-.25-2.46-.85-3.76-1.8-1.3-.9-2.33-1.88-3.08-2.93-.75-1.05-1.2-2.03-1.35-2.93-.15-.85-.08-1.73.23-2.63.3-.9,1.08-2.26,2.33-4.06l1.8-2.63,3.01-4.29c1.8-2.66,2.76-4.19,2.86-4.59.05-.45-.3-.93-1.05-1.43l-.83-.68Z"/>
    <path id="_Path_-160" class="cls-2" d="m340.19,96.02l.6-.9c1.65,1.3,2.88,2.23,3.68,2.78.8.6,2.03,1.43,3.68,2.48l-.6.9-.9-.68c-.8-.55-1.4-.7-1.8-.45-.4.2-1.53,1.65-3.38,4.36l-3.83,5.56c-1.4,2.01-2.28,3.46-2.63,4.36-.3.95-.23,1.98.23,3.08.4,1.15,1.3,2.23,2.71,3.23,1.4,1,2.81,1.55,4.21,1.65.95.05,1.88-.23,2.78-.83.9-.65,2.16-2.16,3.76-4.51l3.68-5.26c1.7-2.46,2.56-3.93,2.56-4.44.05-.5-.35-1.08-1.2-1.73l-.68-.45.6-.9c1.7,1.3,2.78,2.13,3.23,2.48.75.55,1.73,1.2,2.93,1.95l-.6.83-.9-.6c-.65-.45-1.2-.55-1.65-.3-.45.25-1.5,1.58-3.16,3.98l-3.68,5.26c-1.65,2.41-2.88,3.96-3.68,4.66-.75.7-1.65,1.18-2.71,1.43-1.05.3-2.18.3-3.38,0-1.2-.25-2.46-.85-3.76-1.8-1.3-.9-2.33-1.88-3.08-2.93-.75-1.05-1.2-2.03-1.35-2.93-.15-.85-.08-1.73.23-2.63.3-.9,1.08-2.26,2.33-4.06l1.8-2.63,3.01-4.29c1.8-2.66,2.76-4.19,2.86-4.59.05-.45-.3-.93-1.05-1.43l-.83-.68Z"/>
    <path id="_Path_-161" class="cls-2" d="m376.5,129.1l-10.53,4.44c-3.96,1.65-7.34,3.16-10.15,4.51l-.45-.45c.4-1,1.4-3.66,3.01-7.97l4.74-13.01-9.1,9.55c-2.11,2.21-3.23,3.53-3.38,3.98-.1.5.28,1.15,1.13,1.95l.38.38-.75.75c-.95-1.05-1.75-1.88-2.41-2.48-.45-.45-1.4-1.33-2.86-2.63l.75-.83.68.75c.5.45.9.68,1.2.68s.68-.18,1.13-.53c1.2-1.05,2.43-2.26,3.68-3.61l6.62-6.99c1.6-1.7,2.63-2.86,3.08-3.46.25-.3.35-.63.3-.98-.05-.3-.35-.73-.9-1.28l-.6-.6.75-.75c1.25,1.3,2.03,2.13,2.33,2.48.45.4,1.08.95,1.88,1.65-1.2,3.06-2.48,6.49-3.83,10.3l-3.46,9.55,8.57-3.53c3.01-1.25,6.57-2.81,10.68-4.66.85.95,1.48,1.63,1.88,2.03.4.4,1.2,1.13,2.41,2.18l-.75.83-.68-.75c-.65-.6-1.18-.85-1.58-.75-.4.1-1.33.93-2.78,2.48l-8.57,9.02c-1.9,2.01-2.93,3.23-3.08,3.68s.13,1.03.83,1.73l.68.6-.75.75c-1-1.05-1.95-2.03-2.86-2.93-1.05-1.05-2.18-2.08-3.38-3.08l.75-.83.75.75c.6.55,1.08.75,1.43.6.4-.15,1.63-1.33,3.68-3.53l9.55-10Z"/>
    <path id="_Path_-162" class="cls-2" d="m376.5,129.1l-10.53,4.44c-3.96,1.65-7.34,3.16-10.15,4.51l-.45-.45c.4-1,1.4-3.66,3.01-7.97l4.74-13.01-9.1,9.55c-2.11,2.21-3.23,3.53-3.38,3.98-.1.5.28,1.15,1.13,1.95l.38.38-.75.75c-.95-1.05-1.75-1.88-2.41-2.48-.45-.45-1.4-1.33-2.86-2.63l.75-.83.68.75c.5.45.9.68,1.2.68s.68-.18,1.13-.53c1.2-1.05,2.43-2.26,3.68-3.61l6.62-6.99c1.6-1.7,2.63-2.86,3.08-3.46.25-.3.35-.63.3-.98-.05-.3-.35-.73-.9-1.28l-.6-.6.75-.75c1.25,1.3,2.03,2.13,2.33,2.48.45.4,1.08.95,1.88,1.65-1.2,3.06-2.48,6.49-3.83,10.3l-3.46,9.55,8.57-3.53c3.01-1.25,6.57-2.81,10.68-4.66.85.95,1.48,1.63,1.88,2.03.4.4,1.2,1.13,2.41,2.18l-.75.83-.68-.75c-.65-.6-1.18-.85-1.58-.75-.4.1-1.33.93-2.78,2.48l-8.57,9.02c-1.9,2.01-2.93,3.23-3.08,3.68s.13,1.03.83,1.73l.68.6-.75.75c-1-1.05-1.95-2.03-2.86-2.93-1.05-1.05-2.18-2.08-3.38-3.08l.75-.83.75.75c.6.55,1.08.75,1.43.6.4-.15,1.63-1.33,3.68-3.53l9.55-10Z"/>
    <path id="_Path_-163" class="cls-2" d="m379.36,143.91c.3.35.43.78.38,1.28-.05.5-.28.93-.68,1.28-.4.3-.85.43-1.35.38-.45,0-.83-.2-1.13-.6s-.43-.83-.38-1.28c.05-.5.28-.93.68-1.28.4-.3.85-.43,1.35-.38.45,0,.83.2,1.13.6Z"/>
    <path id="_Path_-164" class="cls-2" d="m379.36,143.91c.3.35.43.78.38,1.28-.05.5-.28.93-.68,1.28-.4.3-.85.43-1.35.38-.45,0-.83-.2-1.13-.6s-.43-.83-.38-1.28c.05-.5.28-.93.68-1.28.4-.3.85-.43,1.35-.38.45,0,.83.2,1.13.6Z"/>
    <path id="_Compound_Path_-27" class="cls-3" d="m390.41,158.72c1.1,1.95,1.5,3.61,1.2,4.96-.25,1.4-1.1,2.56-2.56,3.46-1.8,1.2-3.81,1.53-6.02.98-2.21-.5-3.98-1.83-5.34-3.98l-.6-1.05c-.55-.9-1.03-1.65-1.43-2.26-.25-.45-.6-.98-1.05-1.58l-.75-1.05.68-.45c.6.4,1.03.58,1.28.53.2.05.48-.05.83-.3,1.15-.65,2.46-1.45,3.91-2.41l8.8-5.86c2.41-1.55,3.71-2.51,3.91-2.86.25-.45.13-1.03-.38-1.73l-.53-.9.83-.6.75,1.05.68,1.28c.4.65.7,1.15.9,1.5.35.55,1.08,1.63,2.18,3.23l1.28,1.88c.95,1.5,1.38,2.81,1.28,3.91-.1,1.4-.8,2.53-2.11,3.38-1.1.75-2.28,1.05-3.53.9-1.2-.1-2.61-.78-4.21-2.03h0Zm-2.33-4.59c.25.45.48.85.68,1.2,1.15,1.75,2.28,2.78,3.38,3.08,1.15.3,2.36.05,3.61-.75,1.1-.75,1.75-1.63,1.95-2.63.15-1-.2-2.21-1.05-3.61-.4-.6-.9-1.23-1.5-1.88-1.2.7-2.96,1.83-5.26,3.38l-1.8,1.2Zm-10.38,6.84c.35.9.7,1.6,1.05,2.11,1,1.55,2.21,2.46,3.61,2.71,1.45.3,2.96-.05,4.51-1.05,1-.7,1.73-1.45,2.18-2.26.4-.8.55-1.65.45-2.56-.15-.9-.7-2.08-1.65-3.53-.25-.45-.58-.95-.98-1.5l-5.04,3.31-1.8,1.2c-.6.45-1.08.8-1.43,1.05-.25.15-.55.33-.9.53h0Z"/>
    <path id="_Compound_Path_-28" class="cls-3" d="m390.41,158.72c1.1,1.95,1.5,3.61,1.2,4.96-.25,1.4-1.1,2.56-2.56,3.46-1.8,1.2-3.81,1.53-6.02.98-2.21-.5-3.98-1.83-5.34-3.98l-.6-1.05c-.55-.9-1.03-1.65-1.43-2.26-.25-.45-.6-.98-1.05-1.58l-.75-1.05.68-.45c.6.4,1.03.58,1.28.53.2.05.48-.05.83-.3,1.15-.65,2.46-1.45,3.91-2.41l8.8-5.86c2.41-1.55,3.71-2.51,3.91-2.86.25-.45.13-1.03-.38-1.73l-.53-.9.83-.6.75,1.05.68,1.28c.4.65.7,1.15.9,1.5.35.55,1.08,1.63,2.18,3.23l1.28,1.88c.95,1.5,1.38,2.81,1.28,3.91-.1,1.4-.8,2.53-2.11,3.38-1.1.75-2.28,1.05-3.53.9-1.2-.1-2.61-.78-4.21-2.03h0Zm-2.33-4.59c.25.45.48.85.68,1.2,1.15,1.75,2.28,2.78,3.38,3.08,1.15.3,2.36.05,3.61-.75,1.1-.75,1.75-1.63,1.95-2.63.15-1-.2-2.21-1.05-3.61-.4-.6-.9-1.23-1.5-1.88-1.2.7-2.96,1.83-5.26,3.38l-1.8,1.2Zm-10.38,6.84c.35.9.7,1.6,1.05,2.11,1,1.55,2.21,2.46,3.61,2.71,1.45.3,2.96-.05,4.51-1.05,1-.7,1.73-1.45,2.18-2.26.4-.8.55-1.65.45-2.56-.15-.9-.7-2.08-1.65-3.53-.25-.45-.58-.95-.98-1.5l-5.04,3.31-1.8,1.2c-.6.45-1.08.8-1.43,1.05-.25.15-.55.33-.9.53h0Z"/>
    <path id="_Path_-165" class="cls-2" d="m398.91,176.92c-.95,1.6-2.06,3.56-3.31,5.86l-2.48,4.59c-.45.8-.68,1.3-.68,1.5s.03.38.08.53l.23.38-.98.45c-.3-.8-.6-1.48-.9-2.03-.25-.55-.55-1.1-.9-1.65l4.89-8.57c.9-1.6,1.73-3.23,2.48-4.89l.6-.15c.2.55.38.98.53,1.28.75,1.55,1.78,2.56,3.08,3.01,1.25.45,2.63.3,4.14-.45,1.3-.6,2.13-1.48,2.48-2.63.4-1.1.25-2.36-.45-3.76-.45-1-1.13-1.9-2.03-2.71-1.65.7-3.41,1.5-5.26,2.41l-7.29,3.61c-3.61,1.8-5.56,2.88-5.86,3.23-.3.35-.25.95.15,1.8l.53,1.13-.98.45c-.65-1.6-1.23-2.91-1.73-3.91-.35-.8-1.08-2.23-2.18-4.29l.98-.53.45,1.05c.4.85.83,1.25,1.28,1.2.45-.05,2.48-.98,6.09-2.78l7.37-3.61c3.11-1.55,4.81-2.51,5.11-2.86.3-.35.23-1-.23-1.95l-.38-.75.98-.53c.75,1.8,1.35,3.16,1.8,4.06.3.6.75,1.48,1.35,2.63.7,1.3,1.18,2.26,1.43,2.86.8,1.6,1.2,2.93,1.2,3.98.05,1-.18,1.9-.68,2.71-.45.75-1.18,1.38-2.18,1.88-1.4.7-2.88.85-4.44.45-1.55-.4-2.98-1.4-4.29-3.01h0Z"/>
    <path id="_Path_-166" class="cls-2" d="m398.91,176.92c-.95,1.6-2.06,3.56-3.31,5.86l-2.48,4.59c-.45.8-.68,1.3-.68,1.5s.03.38.08.53l.23.38-.98.45c-.3-.8-.6-1.48-.9-2.03-.25-.55-.55-1.1-.9-1.65l4.89-8.57c.9-1.6,1.73-3.23,2.48-4.89l.6-.15c.2.55.38.98.53,1.28.75,1.55,1.78,2.56,3.08,3.01,1.25.45,2.63.3,4.14-.45,1.3-.6,2.13-1.48,2.48-2.63.4-1.1.25-2.36-.45-3.76-.45-1-1.13-1.9-2.03-2.71-1.65.7-3.41,1.5-5.26,2.41l-7.29,3.61c-3.61,1.8-5.56,2.88-5.86,3.23-.3.35-.25.95.15,1.8l.53,1.13-.98.45c-.65-1.6-1.23-2.91-1.73-3.91-.35-.8-1.08-2.23-2.18-4.29l.98-.53.45,1.05c.4.85.83,1.25,1.28,1.2.45-.05,2.48-.98,6.09-2.78l7.37-3.61c3.11-1.55,4.81-2.51,5.11-2.86.3-.35.23-1-.23-1.95l-.38-.75.98-.53c.75,1.8,1.35,3.16,1.8,4.06.3.6.75,1.48,1.35,2.63.7,1.3,1.18,2.26,1.43,2.86.8,1.6,1.2,2.93,1.2,3.98.05,1-.18,1.9-.68,2.71-.45.75-1.18,1.38-2.18,1.88-1.4.7-2.88.85-4.44.45-1.55-.4-2.98-1.4-4.29-3.01h0Z"/>
    <path id="_Path_-167" class="cls-2" d="m392.82,190.08l.3.9c.35.9.8,1.35,1.35,1.35.55,0,2.86-.78,6.92-2.33l5.34-2.11c4.21-1.65,6.52-2.63,6.92-2.93.35-.35.38-.9.08-1.65l-.45-1.2.98-.38c.55,1.65,1.13,3.26,1.73,4.81.5,1.3.98,2.48,1.43,3.53l-.98.38-.38-1.13c-.3-.7-.58-1.1-.83-1.2-.2-.1-.68-.03-1.43.23-1.15.4-3.16,1.15-6.02,2.26l-5.49,2.18c-4.11,1.6-6.34,2.56-6.69,2.86-.35.35-.35.95,0,1.8l.38.98-.98.38c-.4-1.2-.88-2.51-1.43-3.91-.6-1.65-1.18-3.13-1.73-4.44l.98-.38Z"/>
    <path id="_Path_-168" class="cls-2" d="m392.82,190.08l.3.9c.35.9.8,1.35,1.35,1.35.55,0,2.86-.78,6.92-2.33l5.34-2.11c4.21-1.65,6.52-2.63,6.92-2.93.35-.35.38-.9.08-1.65l-.45-1.2.98-.38c.55,1.65,1.13,3.26,1.73,4.81.5,1.3.98,2.48,1.43,3.53l-.98.38-.38-1.13c-.3-.7-.58-1.1-.83-1.2-.2-.1-.68-.03-1.43.23-1.15.4-3.16,1.15-6.02,2.26l-5.49,2.18c-4.11,1.6-6.34,2.56-6.69,2.86-.35.35-.35.95,0,1.8l.38.98-.98.38c-.4-1.2-.88-2.51-1.43-3.91-.6-1.65-1.18-3.13-1.73-4.44l.98-.38Z"/>
    <path id="_Path_-169" class="cls-2" d="m409.29,204.36l3.46-3.38c2.21-2.11,3.66-3.73,4.36-4.89.4-.65.53-1.25.38-1.8-.05-.15-.18-.45-.38-.9l1.05-.3,1.95,4.29c-.3.6-.65,1.13-1.05,1.58-.4.5-1.28,1.4-2.63,2.71l-4.06,3.83,10.45,3.23.83,3.16-.98.23-.15-.6c-.1-.4-.28-.7-.53-.9-.2-.15-1.23-.58-3.08-1.28-3.56-1.35-6.12-2.28-7.67-2.78l-7.29,7.29c-1.5,1.5-2.33,2.41-2.48,2.71-.15.3-.18.68-.08,1.13l.15.6-.98.3c-.25-1.2-.45-2.11-.6-2.71-.15-.6-.35-1.23-.6-1.88l8.8-8.42c-1.35-.55-3.41-1.2-6.17-1.95-2.76-.75-4.69-1.25-5.79-1.5-.05-.5-.13-.98-.23-1.43-.15-.55-.35-1.13-.6-1.73l1.05-.3.15.68c.1.4.33.7.68.9.3.2,2.18.85,5.64,1.95l6.39,2.18Z"/>
    <path id="_Path_-170" class="cls-2" d="m409.29,204.36l3.46-3.38c2.21-2.11,3.66-3.73,4.36-4.89.4-.65.53-1.25.38-1.8-.05-.15-.18-.45-.38-.9l1.05-.3,1.95,4.29c-.3.6-.65,1.13-1.05,1.58-.4.5-1.28,1.4-2.63,2.71l-4.06,3.83,10.45,3.23.83,3.16-.98.23-.15-.6c-.1-.4-.28-.7-.53-.9-.2-.15-1.23-.58-3.08-1.28-3.56-1.35-6.12-2.28-7.67-2.78l-7.29,7.29c-1.5,1.5-2.33,2.41-2.48,2.71-.15.3-.18.68-.08,1.13l.15.6-.98.3c-.25-1.2-.45-2.11-.6-2.71-.15-.6-.35-1.23-.6-1.88l8.8-8.42c-1.35-.55-3.41-1.2-6.17-1.95-2.76-.75-4.69-1.25-5.79-1.5-.05-.5-.13-.98-.23-1.43-.15-.55-.35-1.13-.6-1.73l1.05-.3.15.68c.1.4.33.7.68.9.3.2,2.18.85,5.64,1.95l6.39,2.18Z"/>
    <path id="_Path_-171" class="cls-2" d="m401.54,218.65l.15.98c.15.95.5,1.5,1.05,1.65.55.1,2.96-.2,7.22-.9l5.71-.9c4.41-.7,6.84-1.18,7.29-1.43.45-.25.6-.78.45-1.58l-.15-1.28,1.05-.15c.15,1.7.35,3.38.6,5.04.25,1.4.5,2.66.75,3.76l-1.05.23-.23-1.2c-.1-.75-.25-1.2-.45-1.35-.25-.15-.75-.18-1.5-.08-1.2.15-3.33.48-6.39.98l-5.71.9c-4.36.7-6.74,1.18-7.14,1.43-.4.25-.53.85-.38,1.8l.15.98-1.05.15c-.15-1.25-.33-2.63-.53-4.14-.3-1.75-.6-3.31-.9-4.66l1.05-.23Z"/>
    <path id="_Path_-172" class="cls-2" d="m401.54,218.65l.15.98c.15.95.5,1.5,1.05,1.65.55.1,2.96-.2,7.22-.9l5.71-.9c4.41-.7,6.84-1.18,7.29-1.43.45-.25.6-.78.45-1.58l-.15-1.28,1.05-.15c.15,1.7.35,3.38.6,5.04.25,1.4.5,2.66.75,3.76l-1.05.23-.23-1.2c-.1-.75-.25-1.2-.45-1.35-.25-.15-.75-.18-1.5-.08-1.2.15-3.33.48-6.39.98l-5.71.9c-4.36.7-6.74,1.18-7.14,1.43-.4.25-.53.85-.38,1.8l.15.98-1.05.15c-.15-1.25-.33-2.63-.53-4.14-.3-1.75-.6-3.31-.9-4.66l1.05-.23Z"/>
    <path id="_Compound_Path_-29" class="cls-3" d="m415.23,244.66l-6.32.45c-1.25.1-2.43.2-3.53.3.05,2.36.1,3.83.15,4.44.1,2.06.43,3.61.98,4.66,1.1.2,2.38.35,3.83.45l.08,1.13c-.95-.1-1.78-.15-2.48-.15s-1.78.05-3.23.15c-.2-1.05-.38-2.41-.53-4.06l-.38-6.84c-.05-1.4-.18-2.81-.38-4.21l.83-.08c.25.5.58.98.98,1.43,1.65,0,3.93-.1,6.84-.3,0-1.05-.05-2.06-.15-3.01-.1-1.4-.23-3.01-.38-4.81l-1.65-.68c-1.5-.65-2.83-1.15-3.98-1.5-.45-.15-.78-.2-.98-.15-.2,0-.38.1-.53.3-.1.2-.2.7-.3,1.5v1.13l-1.13.08c0-1.35-.03-2.58-.08-3.68-.1-1.25-.23-2.48-.38-3.68h1.05v.53c.05.45.2.8.45,1.05.25.3.8.63,1.65.98l18.05,7.67c1.15.45,1.83.68,2.03.68l.38-.23c.05-.15.08-.55.08-1.2v-1.8l1.05-.08.3,7.59.15,1.43.45,5.04.08.9c.1,1.5.15,2.88.15,4.14-1.5-.25-3.28-.3-5.34-.15v-1.05h.98c.5-.05,1.23-.18,2.18-.38.35-1.45.45-3.13.3-5.04-.05-.75-.2-1.95-.45-3.61l-3.68.15-5.49.38c0,.95.03,1.8.08,2.56.15,2.31.33,3.63.53,3.98.25.35.8.48,1.65.38l1.28-.08.08,1.05c-1,.05-2.08.1-3.23.15-1.35.1-2.88.25-4.59.45l-.08-1.13h1.05c1.05-.1,1.68-.3,1.88-.6.2-.35.25-1.4.15-3.16-.1-1.05-.25-2.21-.45-3.46h0Zm-1.65-2.71l6.32-.45c2.51-.2,4.66-.4,6.47-.6v-.38c-3.66-1.65-6.84-3.03-9.55-4.14l-3.76-1.5.53,7.07Z"/>
    <path id="_Compound_Path_-30" class="cls-3" d="m415.23,244.66l-6.32.45c-1.25.1-2.43.2-3.53.3.05,2.36.1,3.83.15,4.44.1,2.06.43,3.61.98,4.66,1.1.2,2.38.35,3.83.45l.08,1.13c-.95-.1-1.78-.15-2.48-.15s-1.78.05-3.23.15c-.2-1.05-.38-2.41-.53-4.06l-.38-6.84c-.05-1.4-.18-2.81-.38-4.21l.83-.08c.25.5.58.98.98,1.43,1.65,0,3.93-.1,6.84-.3,0-1.05-.05-2.06-.15-3.01-.1-1.4-.23-3.01-.38-4.81l-1.65-.68c-1.5-.65-2.83-1.15-3.98-1.5-.45-.15-.78-.2-.98-.15-.2,0-.38.1-.53.3-.1.2-.2.7-.3,1.5v1.13l-1.13.08c0-1.35-.03-2.58-.08-3.68-.1-1.25-.23-2.48-.38-3.68h1.05v.53c.05.45.2.8.45,1.05.25.3.8.63,1.65.98l18.05,7.67c1.15.45,1.83.68,2.03.68l.38-.23c.05-.15.08-.55.08-1.2v-1.8l1.05-.08.3,7.59.15,1.43.45,5.04.08.9c.1,1.5.15,2.88.15,4.14-1.5-.25-3.28-.3-5.34-.15v-1.05h.98c.5-.05,1.23-.18,2.18-.38.35-1.45.45-3.13.3-5.04-.05-.75-.2-1.95-.45-3.61l-3.68.15-5.49.38c0,.95.03,1.8.08,2.56.15,2.31.33,3.63.53,3.98.25.35.8.48,1.65.38l1.28-.08.08,1.05c-1,.05-2.08.1-3.23.15-1.35.1-2.88.25-4.59.45l-.08-1.13h1.05c1.05-.1,1.68-.3,1.88-.6.2-.35.25-1.4.15-3.16-.1-1.05-.25-2.21-.45-3.46h0Zm-1.65-2.71l6.32-.45c2.51-.2,4.66-.4,6.47-.6v-.38c-3.66-1.65-6.84-3.03-9.55-4.14l-3.76-1.5.53,7.07Z"/>
    <path id="_Path_-173" class="cls-2" d="m232.37,139.55l.15,1.88-2.33.6v-1.73l2.18-.75Z"/>
    <path id="_Path_-174" class="cls-2" d="m237.18,138.5l.08,1.73-2.26.38-.08-1.5,2.26-.6Z"/>
    <path id="_Path_-175" class="cls-2" d="m242.82,137.97l-.15,1.65-2.48.23v-1.58l2.63-.3Z"/>
    <path id="_Path_-176" class="cls-2" d="m245.83,138.05l2.93.23-.08,1.88-2.78-.38-.08-1.73Z"/>
    <path id="_Path_-177" class="cls-2" d="m251.77,138.57l2.78.45v2.26l-2.86-.68.08-2.03Z"/>
    <path id="_Path_-178" class="cls-2" d="m257.03,139.7l1.73.6-.15,2.33-1.65-.75.08-2.18Z"/>
  </g>
</svg>